<svg version="1.1" xmlns="http://www.w3.org/2000/svg" viewBox="0 0 929.3185320009577 1632.75" width="929.3185320009577" height="1632.75">
  <!-- svg-source:excalidraw -->
  
  <defs>
    <style>
      @font-face {
        font-family: "Virgil";
        src: url("https://excalidraw.com/Virgil.woff2");
      }
      @font-face {
        font-family: "Cascadia";
        src: url("https://excalidraw.com/Cascadia.woff2");
      }
    </style>
  </defs>
  <rect x="0" y="0" width="929.3185320009577" height="1632.75" fill="#ffffff"></rect><g stroke-linecap="round" transform="translate(34 1320.5) rotate(0 160 20.5)"><path d="M7.28 -1.46 L306.92 -2.76 L318.54 0.09 L315.57 5.96 L318.35 31.23 L314.39 35.41 L309.91 37.5 L14.24 39.98 L-0.06 40.72 L3.39 33.91 L-3.08 7.83 L1.21 -1.39 L8.82 -0.36" stroke="none" stroke-width="0" fill="#eeeeee"></path><path d="M10.25 0 M10.25 0 C89.14 1.31, 171.74 0.92, 309.75 0 M10.25 0 C80.23 -2.97, 149.29 -2.56, 309.75 0 M309.75 0 C312.77 0.72, 319.66 0.1, 320 10.25 M309.75 0 C318.22 1.2, 324.49 1.42, 320 10.25 M320 10.25 C322.03 13.82, 316.81 20.03, 320 30.75 M320 10.25 C318.57 14.42, 319.77 22.24, 320 30.75 M320 30.75 C319.58 41.29, 318.98 39.44, 309.75 41 M320 30.75 C323.36 39.51, 314.39 38.4, 309.75 41 M309.75 41 C247.43 36.79, 189.73 35.76, 10.25 41 M309.75 41 C231.28 42.6, 152.47 42.1, 10.25 41 M10.25 41 C6.08 44.11, -2.72 34, 0 30.75 M10.25 41 C4.6 38.46, -2.91 39.02, 0 30.75 M0 30.75 C-0.21 24.3, -1.92 14.86, 0 10.25 M0 30.75 C-1.07 22.02, -0.12 13.8, 0 10.25 M0 10.25 C2.92 6.87, 0.04 0.12, 10.25 0 M0 10.25 C-4.29 -0.62, 3.56 2.46, 10.25 0" stroke="#495057" stroke-width="2" fill="none"></path></g><g stroke-linecap="round" transform="translate(10 908.5) rotate(0 160 20.5)"><path d="M11.54 1.96 L309.19 -0.31 L315.18 -0.77 L319.35 3.42 L323.6 30.63 L313.87 40.58 L307.46 42.98 L9.12 37.76 L-0.98 35.25 L-3.02 33.32 L2.45 7.42 L-1.42 4.62 L7.54 -2.78" stroke="none" stroke-width="0" fill="#eeeeee"></path><path d="M10.25 0 M10.25 0 C78.61 -0.25, 141.07 0.41, 309.75 0 M10.25 0 C73.81 2.75, 139.04 2.07, 309.75 0 M309.75 0 C318.17 -2.8, 317.78 4.07, 320 10.25 M309.75 0 C315.67 1.55, 319.87 6.98, 320 10.25 M320 10.25 C317 15.95, 320.02 21.29, 320 30.75 M320 10.25 C320.43 14.56, 319.41 22.03, 320 30.75 M320 30.75 C317.11 39.45, 317.64 41.81, 309.75 41 M320 30.75 C318.9 37.07, 320.34 41.45, 309.75 41 M309.75 41 C232.42 40.36, 149.62 42.42, 10.25 41 M309.75 41 C225.19 36.55, 142.16 38.77, 10.25 41 M10.25 41 C4.37 44.77, -1.48 34.62, 0 30.75 M10.25 41 C3.97 41.76, 3.6 37.06, 0 30.75 M0 30.75 C-1.41 24.49, 3.47 20.07, 0 10.25 M0 30.75 C-0.29 23.79, 1.03 14.32, 0 10.25 M0 10.25 C-2.84 5.94, 5.98 -0.22, 10.25 0 M0 10.25 C1.06 2.63, 1.65 -3.7, 10.25 0" stroke="#495057" stroke-width="2" fill="none"></path></g><g stroke-linecap="round" transform="translate(66 437.5) rotate(0 160 20.5)"><path d="M6.85 0.42 L312.5 3.59 L314.66 5.17 L321.7 8.07 L318.89 30.74 L316.68 40.76 L306.26 39.19 L7.85 40.57 L-1.03 36.83 L-1.06 30.23 L-2.98 7.1 L0.84 -0.35 L7.87 3.32" stroke="none" stroke-width="0" fill="#eeeeee"></path><path d="M10.25 0 M10.25 0 C70.48 0.65, 131.35 0.58, 309.75 0 M10.25 0 C94.66 2.48, 180.66 3.81, 309.75 0 M309.75 0 C316.46 -3.57, 322.14 1.13, 320 10.25 M309.75 0 C318.86 -1.3, 316.27 -0.66, 320 10.25 M320 10.25 C321.5 16.42, 315.71 21.34, 320 30.75 M320 10.25 C319.3 15, 321.54 19.58, 320 30.75 M320 30.75 C319.25 38.1, 313.11 41.48, 309.75 41 M320 30.75 C316.7 36.58, 315.31 44.27, 309.75 41 M309.75 41 C240.48 38.4, 173.89 38.91, 10.25 41 M309.75 41 C221.02 38.83, 130.67 38.02, 10.25 41 M10.25 41 C3.37 42.91, 0.15 37.5, 0 30.75 M10.25 41 C2.72 42.01, -4.4 36.26, 0 30.75 M0 30.75 C1.35 26.1, -0.66 19.38, 0 10.25 M0 30.75 C-1.56 22.8, 1.64 14.86, 0 10.25 M0 10.25 C-0.72 5.74, 2.53 -3.27, 10.25 0 M0 10.25 C-3.31 -0.71, -0.61 -3.46, 10.25 0" stroke="#495057" stroke-width="2" fill="none"></path></g><g stroke-linecap="round" transform="translate(44 26) rotate(0 160 20.5)"><path d="M13.69 -2.31 L311.31 3.74 L317.5 3.91 L323.21 6.57 L320.17 26.84 L320.95 36.5 L310.17 40.51 L12.72 41.34 L1.59 35.07 L2.21 28.61 L0.38 5.68 L2.36 4.87 L10.17 -2.75" stroke="none" stroke-width="0" fill="#eeeeee"></path><path d="M10.25 0 M10.25 0 C101.92 -0.83, 189.13 0.09, 309.75 0 M10.25 0 C121.05 -5.37, 234.19 -3.48, 309.75 0 M309.75 0 C313.15 1.51, 317.65 1.38, 320 10.25 M309.75 0 C317.43 -0.05, 319.92 5.48, 320 10.25 M320 10.25 C318.16 17.14, 317.33 16.61, 320 30.75 M320 10.25 C321.34 18.73, 321.53 27.59, 320 30.75 M320 30.75 C316.08 35.14, 315.22 44.63, 309.75 41 M320 30.75 C318.12 37.92, 320.97 36.53, 309.75 41 M309.75 41 C213.48 46.06, 113.28 43.47, 10.25 41 M309.75 41 C246.65 43, 181.88 44.88, 10.25 41 M10.25 41 C5.72 39.89, -0.01 36.83, 0 30.75 M10.25 41 C6.09 36.98, -2.08 34.82, 0 30.75 M0 30.75 C-0.69 24.3, -3.25 20.23, 0 10.25 M0 30.75 C1.96 23.5, -1.22 20.61, 0 10.25 M0 10.25 C0.21 5.48, 4.7 1.96, 10.25 0 M0 10.25 C-0.65 3.06, 0.82 -3.83, 10.25 0" stroke="#495057" stroke-width="2" fill="none"></path></g><g stroke-linecap="round" transform="translate(636.9755856461013 233.18759361444575) rotate(0 141.1714731774282 138.45663715478514)"><path d="M68.01 -3.48 L231.21 -1.31 L252.12 6.97 L264.13 12.74 L270.02 18.96 L277.28 40.83 L284.54 64.03 L280.25 219.29 L278.55 242.46 L268.6 258.45 L258.13 265.22 L247.14 272.65 L222.85 280.49 L61.65 276.82 L28.82 273.66 L19.97 264.09 L12.77 257.47 L4.66 237 L-3.1 218.28 L-2.14 68.97 L2.35 45.5 L12.04 26.96 L19.16 13.1 L41.75 6.78 L73.22 2.54" stroke="none" stroke-width="0" fill="#eeeeee"></path><path d="M69.23 0 M69.23 0 C118.87 1.53, 167.28 -5.9, 213.11 0 M69.23 0 C121.62 1.29, 171.49 2.84, 213.11 0 M213.11 0 C259.22 -0.07, 284.14 20.26, 282.34 69.23 M213.11 0 C254.71 -0.95, 280.7 25.59, 282.34 69.23 M282.34 69.23 C281.79 99.35, 282.58 137.72, 282.34 207.68 M282.34 69.23 C283.18 119.53, 286.21 170.38, 282.34 207.68 M282.34 207.68 C282.63 257.65, 255.38 277.93, 213.11 276.91 M282.34 207.68 C280.33 256.53, 261.08 280.81, 213.11 276.91 M213.11 276.91 C178.28 277.22, 146.2 271.69, 69.23 276.91 M213.11 276.91 C160.02 278.56, 107.67 279.73, 69.23 276.91 M69.23 276.91 C19.58 275.11, -2.4 253.4, 0 207.68 M69.23 276.91 C18.95 275.07, -1.22 253.24, 0 207.68 M0 207.68 C-3.84 176.3, 2.39 145.69, 0 69.23 M0 207.68 C0.49 177.27, 0.44 145.29, 0 69.23 M0 69.23 C-0.31 20.81, 19.75 -0.01, 69.23 0 M0 69.23 C-2.69 27.22, 22.94 -4.1, 69.23 0" stroke="#000000" stroke-width="2" fill="none"></path></g><g transform="translate(710.4482194840239 312.60654767096685) rotate(0 67.69883933950518 56.19446141253047)"><text x="67.69883933950523" y="39.19446141253049" font-family="Virgil, Segoe UI Emoji" font-size="43.731617109824874px" fill="#000000" text-anchor="middle" style="white-space: pre;" direction="ltr">HTTP</text><text x="67.69883933950523" y="95.38892282506097" font-family="Virgil, Segoe UI Emoji" font-size="43.731617109824874px" fill="#000000" text-anchor="middle" style="white-space: pre;" direction="ltr">Server</text></g><g stroke-linecap="round" transform="translate(44.32199087485958 28.695148801488813) rotate(0 159.17800912514036 128.3048511985112)"><path d="M-0.92 -1.02 C83.45 2.28, 167.55 1.25, 317.01 -0.41 M0.48 -0.06 C67.54 -1.36, 133.75 -1.92, 317.81 -0.05 M319.85 -1.4 C318.5 63.3, 321.04 126.88, 318.39 255.2 M318.09 0.77 C317.63 72.13, 316.96 143.42, 317.9 257.18 M318.37 257.84 C197.79 257.7, 73.29 256.85, -0.03 255.36 M319.02 256.19 C242.96 258.17, 167.34 258.41, -0.16 256.02 M-0.17 258.14 C-0.08 188.82, -0.08 121.72, 0.86 -0.53 M-0.27 256.86 C0.48 157.47, 0.72 57.63, -0.59 -0.14" stroke="#000000" stroke-width="1" fill="none"></path></g><g transform="translate(181.57591134540735 137.95598350612232) rotate(0 60.5 10.5)"><text x="0" y="16" font-family="Helvetica, Segoe UI Emoji" font-size="20px" fill="#000000" text-anchor="start" style="white-space: pre;" direction="ltr">Visit Manning</text></g><g stroke-linecap="round"><g transform="translate(181.57591134540735 160.48639958765307) rotate(0 54.72913264837115 -0.1649240445443354)"><path d="M0.68 0.16 C18.97 0.44, 91.44 0.91, 109.88 0.84 M-0.42 -0.8 C17.65 -0.83, 90.07 -1.35, 108.65 -1.11" stroke="#000000" stroke-width="1" fill="none"></path></g></g><g stroke-linecap="round"><g transform="translate(47 65) rotate(0 158.7067082386464 1.0133876997977467)"><path d="M-0.47 -0.89 C52.48 -0.53, 264.91 2.48, 317.89 2.92 M1.48 1.26 C54.33 1.23, 264.85 0.99, 317.4 1.28" stroke="#000000" stroke-width="1" fill="none"></path></g></g><g stroke-linecap="round" transform="translate(58 36) rotate(0 9 9.5)"><path d="M0.78 5.98 C0.78 5.98, 0.78 5.98, 0.78 5.98 M0.78 5.98 C0.78 5.98, 0.78 5.98, 0.78 5.98 M-0.38 13.79 C3.43 6.43, 6.96 3.4, 11.98 1.87 M1.25 13.07 C5.17 7.26, 8.88 2.56, 11.12 0.56 M3.93 14.1 C5.66 11.71, 9.86 6.1, 14.92 1.44 M2.93 15.24 C6.7 11.05, 11.1 6.38, 13.53 2.57 M4.8 18.91 C9.2 16.77, 11.99 13.11, 15.36 7.02 M6.34 18.34 C9.19 14.39, 13.1 9.76, 16.49 5.08 M9.62 19.57 C11.79 18.45, 13.45 15.9, 18.25 10.66 M9.7 19.04 C13.72 15.66, 16.53 12.19, 18.43 10.83" stroke="#fa5252" stroke-width="0.5" fill="none"></path><path d="M9.82 -0.57 C11.38 -0.45, 13.82 1.94, 15.06 3.57 C16.3 5.21, 17.1 7.15, 17.25 9.26 C17.4 11.37, 17.05 14.48, 15.95 16.22 C14.84 17.97, 12.37 19.4, 10.62 19.74 C8.87 20.08, 7.16 19.31, 5.45 18.26 C3.73 17.2, 1.09 15.45, 0.32 13.4 C-0.46 11.35, -0.06 7.85, 0.77 5.98 C1.61 4.12, 3.55 3.09, 5.34 2.21 C7.12 1.33, 10.52 0.87, 11.47 0.7 C12.42 0.52, 11.12 1.08, 11.05 1.16 M12.92 -0.05 C14.78 0.43, 16.17 3.36, 17.2 5.12 C18.22 6.87, 19.75 8.43, 19.09 10.47 C18.44 12.5, 14.77 15.99, 13.29 17.34 C11.8 18.68, 11.7 18.69, 10.18 18.53 C8.66 18.36, 5.9 17.54, 4.14 16.34 C2.38 15.14, 0.34 13.45, -0.37 11.35 C-1.08 9.24, -1.29 5.39, -0.12 3.69 C1.05 2, 4.39 1.51, 6.67 1.17 C8.94 0.83, 12.71 1.78, 13.53 1.64 C14.35 1.51, 11.62 0.19, 11.57 0.37" stroke="#000000" stroke-width="1" fill="none"></path></g><g stroke-linecap="round" transform="translate(83 36) rotate(0 9 9.5)"><path d="M2.08 3.13 C2.08 3.13, 2.08 3.13, 2.08 3.13 M2.08 3.13 C2.08 3.13, 2.08 3.13, 2.08 3.13 M2.09 11 C4.06 5.8, 6.15 4.6, 8.2 2.05 M0.98 9.73 C3.16 8.18, 4.5 6.21, 8.58 0.9 M3.19 16.21 C6.81 10.71, 10.59 8.24, 13.51 2.61 M2.25 15.54 C4.62 13.29, 6.81 10.05, 13.13 2.21 M4.84 17.95 C9.72 14.36, 15.3 8.63, 14.94 4.51 M4.66 17.35 C9.26 12.17, 14.62 7.41, 16.99 4.95 M6.64 19.31 C10.73 17.41, 16.83 13.46, 19.02 6.23 M8.6 19.6 C11.74 15.83, 15.74 12.47, 19.53 7.14" stroke="#fab005" stroke-width="0.5" fill="none"></path><path d="M8.45 0.06 C10.24 -0.26, 11.97 1.49, 13.41 2.46 C14.84 3.43, 16.53 4.09, 17.04 5.89 C17.54 7.7, 17 11.12, 16.43 13.3 C15.86 15.48, 15.07 17.98, 13.62 18.98 C12.17 19.98, 9.79 19.8, 7.73 19.32 C5.66 18.83, 2.37 17.65, 1.23 16.07 C0.09 14.48, 0.79 11.92, 0.88 9.82 C0.97 7.72, 0.63 5.09, 1.77 3.48 C2.91 1.87, 6.44 0.57, 7.71 0.15 C8.98 -0.27, 9.22 0.94, 9.38 0.96 M12.37 -0.81 C14.39 0, 15.86 3.07, 16.57 5.21 C17.27 7.34, 16.69 10.24, 16.61 12.02 C16.53 13.81, 17.28 14.9, 16.08 15.91 C14.89 16.93, 11.66 17.86, 9.45 18.1 C7.25 18.33, 4.47 18.3, 2.85 17.33 C1.23 16.37, 0.21 14.44, -0.24 12.3 C-0.69 10.15, -0.67 6.23, 0.14 4.47 C0.96 2.72, 2.64 2.61, 4.66 1.78 C6.68 0.95, 11.01 -0.44, 12.25 -0.52 C13.5 -0.6, 12.06 0.84, 12.14 1.28" stroke="#000000" stroke-width="1" fill="none"></path></g><g stroke-linecap="round" transform="translate(107 37) rotate(0 9 9.5)"><path d="M2.15 3.2 C2.15 3.2, 2.15 3.2, 2.15 3.2 M2.15 3.2 C2.15 3.2, 2.15 3.2, 2.15 3.2 M1.95 10.31 C2.61 6.55, 7.27 3.8, 9.93 0.36 M0.68 10.65 C3.94 7.04, 6.78 3.48, 8.79 1.59 M3.23 15.49 C5.06 12.07, 9.92 8.62, 15.02 -0.38 M2.56 14.86 C7.07 10.04, 10.6 5.74, 14.62 1.76 M4.81 18.64 C9.46 16.38, 11.83 10.07, 15.98 6.63 M4.18 18.31 C7.61 15.29, 11.48 10.98, 16.44 5.26 M8.86 18.24 C13.5 16.57, 16.7 11.79, 16.55 10.06 M9.06 18.91 C10.95 17.25, 13.14 15.04, 17.19 9.96" stroke="#82c91e" stroke-width="0.5" fill="none"></path><path d="M6.86 -0.29 C8.63 -1.04, 12.29 -0.47, 13.86 0.39 C15.44 1.25, 15.7 2.79, 16.33 4.85 C16.97 6.91, 17.88 10.53, 17.65 12.76 C17.43 14.99, 16.49 17.28, 14.98 18.22 C13.47 19.16, 10.52 18.62, 8.6 18.41 C6.67 18.19, 4.69 18.43, 3.41 16.93 C2.13 15.44, 1.1 11.73, 0.91 9.42 C0.72 7.11, 1.12 4.57, 2.26 3.07 C3.4 1.58, 6.6 0.9, 7.75 0.44 C8.91 -0.03, 9.27 0.08, 9.16 0.28 M3.53 1.07 C5.43 -0.27, 9.36 -1.7, 11.67 -1.1 C13.97 -0.5, 16.4 2.84, 17.36 4.68 C18.31 6.52, 17.81 8.17, 17.39 9.93 C16.96 11.68, 15.92 13.79, 14.78 15.22 C13.65 16.64, 12.19 18.22, 10.55 18.46 C8.92 18.7, 6.78 17.82, 4.99 16.66 C3.2 15.51, 0.37 13.21, -0.18 11.51 C-0.72 9.8, 1.06 8.11, 1.72 6.45 C2.39 4.8, 3.18 2.22, 3.82 1.57 C4.45 0.93, 5.16 2.4, 5.52 2.6" stroke="#000000" stroke-width="1" fill="none"></path></g><g transform="translate(237 93.5) rotate(0 42.5 18)"><text x="0" y="25" font-family="Virgil, Segoe UI Emoji" font-size="28px" fill="#c92a2a" text-anchor="start" style="white-space: pre;" direction="ltr">*click*</text></g><g stroke-linecap="round" transform="translate(67.32199087485958 440.6951488014888) rotate(0 159.17800912514036 128.3048511985112)"><path d="M0.28 -1.31 C113.85 -1.23, 229 -0.4, 317.6 -1 M0.67 0.22 C69.38 0.65, 137.47 0.72, 317.81 0.67 M317.28 1.14 C316.26 79.48, 316.3 157.12, 319.63 255 M319.07 -0.47 C317.12 86, 316.2 170.92, 317.56 257.16 M317.28 257 C237.17 257.26, 155.91 258.88, 0.74 255.6 M317.71 257.17 C238.54 256.07, 157.33 256.69, 0.1 256.94 M0.21 257.31 C-2.78 201.72, -0.4 148.57, -0.56 -0.94 M-0.03 256.31 C-0.39 187.82, 0.73 119.71, -0.17 0.04" stroke="#000000" stroke-width="1" fill="none"></path></g><g transform="translate(82 490) rotate(0 97 14.5)"><text x="0" y="22" font-family="Helvetica, Segoe UI Emoji" font-size="28px" fill="#000000" text-anchor="start" style="white-space: pre;" direction="ltr">Manning Books</text></g><g stroke-linecap="round"><g transform="translate(93.43938569177294 555.0000000000001) rotate(0 134.789794042023 1.0490699658474796)"><path d="M1.87 0.39 C62.82 -0.33, 127.42 -0.1, 268.22 0.01 M1.36 0.1 C92.62 2.47, 187.57 2.82, 266.87 1.28" stroke="#000000" stroke-width="1" fill="none"></path></g></g><g stroke-linecap="round"><g transform="translate(95.91918092236398 574.8383618447281) rotate(0 133.65482275088476 1.3352042640489117)"><path d="M-0.83 1.24 C91.96 1.09, 185.29 -0.9, 268.14 2.36 M-0.56 1.25 C76.22 1.26, 150.23 0.48, 267.94 0.31" stroke="#000000" stroke-width="1" fill="none"></path></g></g><g stroke-linecap="round"><g transform="translate(86 593.4368260741604) rotate(0 133.05706361083648 0.9752471647498169)"><path d="M0.13 1.18 C84.89 -2.5, 168.07 0.24, 265.98 3.96 M1.24 1.16 C81.86 -2.91, 164.52 -3.5, 265.4 1.98" stroke="#000000" stroke-width="1" fill="none"></path></g></g><g stroke-linecap="round"><g transform="translate(90.95959046118196 614.5150855341839) rotate(0 133.7926023080595 0.40027641798889135)"><path d="M1.64 -1.23 C92.03 -0.03, 180.35 1.99, 266.77 0.13 M0.29 0.04 C102.44 -3.56, 200.95 -1.41, 267.3 2.59" stroke="#000000" stroke-width="1" fill="none"></path></g></g><g stroke-linecap="round"><g transform="translate(93.43938569177294 641.7928330706847) rotate(0 135.21986283850075 1.3906674653765094)"><path d="M1.56 1.12 C89.36 4.78, 180.08 1.37, 269.07 3.72 M1.37 -0.93 C98.4 1.1, 199.87 2.18, 267.41 2" stroke="#000000" stroke-width="1" fill="none"></path></g></g><g stroke-linecap="round"><g transform="translate(87.23989761529549 669.0705806071855) rotate(0 133.86255882459812 1.8505150418705512)"><path d="M-0.59 2.72 C69.76 -2.29, 141.62 1.62, 268.9 1.82 M-1.17 0.74 C81.36 4.22, 162.1 4, 266.21 2.43" stroke="#000000" stroke-width="1" fill="none"></path></g></g><g stroke-linecap="round"><g transform="translate(70 478) rotate(0 158.88426176272336 1.1114128414541824)"><path d="M-0.89 0.22 C51.78 0.9, 263.44 2.78, 316.31 2.93 M0.84 -0.71 C53.89 -0.26, 266.26 0.84, 318.66 1.3" stroke="#000000" stroke-width="1" fill="none"></path></g></g><g stroke-linecap="round" transform="translate(81 449) rotate(0 9 9.5)"><path d="M0.99 4.83 C0.99 4.83, 0.99 4.83, 0.99 4.83 M0.99 4.83 C0.99 4.83, 0.99 4.83, 0.99 4.83 M0.12 11.33 C2.03 8.62, 6.91 4, 7.95 3.73 M-0.28 12.5 C2.83 9.39, 4.39 6.96, 8 3.16 M2.4 15.16 C6.46 8.75, 11.69 4.87, 13.1 1.98 M3.01 14.8 C7.07 11.04, 10.65 5.96, 13.19 2.19 M4.69 19.1 C9.06 15.32, 11.45 13.53, 18 3.9 M5.03 17.48 C8.76 14.45, 10.09 11.35, 16.51 5.72 M9.35 20.07 C12.14 17.13, 14.11 14.29, 18.55 7.55 M9.62 19.3 C13.15 15.08, 16.69 11.76, 19.06 8.6" stroke="#fa5252" stroke-width="0.5" fill="none"></path><path d="M11.57 0.84 C13.33 1.74, 15.46 4.1, 16.55 6.03 C17.65 7.96, 18.52 10.59, 18.11 12.42 C17.71 14.25, 15.76 16.02, 14.14 16.99 C12.51 17.95, 10.07 18.28, 8.36 18.21 C6.66 18.14, 5.44 17.73, 3.9 16.58 C2.36 15.44, -0.34 13.24, -0.87 11.33 C-1.4 9.42, -0.45 6.83, 0.72 5.14 C1.89 3.45, 4.12 1.82, 6.17 1.19 C8.22 0.57, 11.65 1.49, 13.03 1.39 C14.41 1.29, 14.45 0.64, 14.45 0.59 M9.93 1.45 C11.37 1.67, 12.86 1.97, 13.94 3.25 C15.02 4.53, 16.07 7.13, 16.42 9.12 C16.76 11.12, 16.59 13.84, 16.01 15.22 C15.44 16.59, 14.59 16.77, 12.94 17.37 C11.29 17.97, 8.26 19.22, 6.11 18.81 C3.96 18.39, 0.91 16.63, 0.04 14.89 C-0.83 13.16, 0.49 10.64, 0.87 8.39 C1.25 6.13, 0.82 2.74, 2.33 1.35 C3.84 -0.04, 9.01 0.05, 9.93 0.06 C10.85 0.06, 7.74 1.47, 7.87 1.4" stroke="#000000" stroke-width="1" fill="none"></path></g><g stroke-linecap="round" transform="translate(106 449) rotate(0 9 9.5)"><path d="M2.02 4.41 C2.02 4.41, 2.02 4.41, 2.02 4.41 M2.02 4.41 C2.02 4.41, 2.02 4.41, 2.02 4.41 M1.16 9.79 C4.14 8.88, 5.38 5.67, 9.71 2.49 M2.23 11.11 C3.4 8.65, 5.2 7.33, 9.18 2.98 M3.26 14.77 C6.23 10.6, 11.73 4.28, 14.06 2.97 M2.9 15.75 C7.77 10.61, 11.3 5, 14.27 1.39 M7.01 19.56 C9.26 15.78, 13.61 12.23, 16.31 3.81 M5.29 19 C10.02 12.27, 14.7 7.75, 18.23 3.93 M11.26 19.99 C14.33 15.6, 17.51 10.08, 19.52 8.56 M10.39 19.33 C13.12 15.97, 16.9 12.59, 20.73 7.94" stroke="#fab005" stroke-width="0.5" fill="none"></path><path d="M6.74 -0.07 C8.76 -0.51, 11.81 0.33, 13.7 1.18 C15.58 2.03, 17.37 3.31, 18.04 5.05 C18.7 6.79, 18.45 9.42, 17.69 11.61 C16.92 13.8, 14.99 17.12, 13.43 18.19 C11.87 19.26, 10.03 18.45, 8.33 18.02 C6.63 17.59, 4.49 16.88, 3.23 15.6 C1.96 14.31, 0.9 12.23, 0.75 10.31 C0.6 8.38, 1.05 5.62, 2.33 4.04 C3.62 2.47, 7.4 1.43, 8.44 0.84 C9.48 0.26, 8.76 0.5, 8.59 0.53 M14.29 -0.12 C16.29 0.23, 17.3 2.13, 18.03 4.05 C18.77 5.96, 19.22 8.96, 18.7 11.35 C18.17 13.75, 16.81 17.07, 14.87 18.4 C12.92 19.74, 8.99 19.92, 7.02 19.38 C5.06 18.84, 4.1 16.54, 3.07 15.14 C2.05 13.73, 1 13, 0.9 10.97 C0.79 8.93, 1.6 4.6, 2.45 2.94 C3.3 1.27, 4.27 1.56, 6.01 1 C7.75 0.43, 11.57 -0.72, 12.9 -0.46 C14.23 -0.2, 14.27 2.2, 13.97 2.57" stroke="#000000" stroke-width="1" fill="none"></path></g><g stroke-linecap="round" transform="translate(130 450) rotate(0 9 9.5)"><path d="M1.22 5.03 C1.22 5.03, 1.22 5.03, 1.22 5.03 M1.22 5.03 C1.22 5.03, 1.22 5.03, 1.22 5.03 M-0.72 12.32 C2.96 9.05, 4.32 8.33, 7.5 2.95 M0.6 12.33 C2.58 9.47, 5.69 6.24, 7.99 4.41 M1.83 14.67 C7.3 10.65, 10.49 5.39, 14.73 3.97 M2.86 16.45 C5.34 12.55, 7.33 9.31, 13.06 2.56 M5.68 19.73 C8.59 17.43, 11.74 11.61, 15.86 7.02 M5.1 19.34 C7.67 14.78, 12.57 10.93, 15.99 6.01 M9.81 20.23 C11.77 17.41, 12.81 14.7, 18.86 10.1 M9.27 19.97 C11.61 17.98, 13.93 14.95, 18.36 9.93" stroke="#82c91e" stroke-width="0.5" fill="none"></path><path d="M5.47 1.54 C7.34 0.88, 10.53 0.94, 12.35 1.46 C14.17 1.99, 15.52 3.21, 16.4 4.68 C17.27 6.16, 17.69 8.3, 17.59 10.32 C17.48 12.34, 17.35 15.26, 15.77 16.8 C14.19 18.33, 10.29 19.43, 8.1 19.55 C5.9 19.67, 3.92 18.79, 2.58 17.52 C1.24 16.25, 0.3 14, 0.06 11.94 C-0.18 9.88, -0.13 7.25, 1.12 5.14 C2.37 3.03, 6.4 0.24, 7.55 -0.7 C8.7 -1.64, 8.09 -0.95, 8 -0.48 M5.39 1.25 C6.76 0.51, 9.26 1.01, 11.09 1.8 C12.92 2.59, 15.1 4.53, 16.39 5.99 C17.69 7.45, 19.12 8.62, 18.85 10.56 C18.58 12.49, 16.69 16.05, 14.79 17.6 C12.88 19.15, 9.3 19.92, 7.42 19.85 C5.54 19.78, 4.91 18.86, 3.51 17.2 C2.1 15.53, -0.79 12.03, -1.01 9.89 C-1.24 7.74, 1.16 5.7, 2.17 4.32 C3.18 2.94, 4.09 2.45, 5.06 1.6 C6.02 0.76, 7.7 -0.69, 7.97 -0.74" stroke="#000000" stroke-width="1" fill="none"></path></g><g stroke-linecap="round"><g transform="translate(381 172.22947341172278) rotate(0 114.14435268442384 56.14965448940552)"><path d="M-0.39 1.49 C37.54 19.94, 188.96 91.62, 227.21 109.95 M-4.05 -0.18 C34.78 18.65, 193.82 93.41, 232.34 112.48" stroke="#000000" stroke-width="4" fill="none"></path></g><g transform="translate(381 172.22947341172278) rotate(0 114.14435268442384 56.14965448940552)"><path d="M204.61 106.17 C208.08 109.82, 218.69 109.55, 230.78 115.93 M201.15 107.54 C207.45 109.48, 215.78 109.53, 231.68 112.78" stroke="#000000" stroke-width="4" fill="none"></path></g><g transform="translate(381 172.22947341172278) rotate(0 114.14435268442384 56.14965448940552)"><path d="M213.5 87.67 C214.34 96.57, 222.41 101.57, 230.78 115.93 M210.04 89.05 C214.3 94.73, 220.79 98.59, 231.68 112.78" stroke="#000000" stroke-width="4" fill="none"></path></g></g><g transform="translate(466 54.5) rotate(0 172 52.5)"><text x="0" y="28" font-family="Cascadia, Segoe UI Emoji" font-size="28px" fill="#000000" text-anchor="start" style="white-space: pre;" direction="ltr">GET /</text><text x="0" y="63" font-family="Cascadia, Segoe UI Emoji" font-size="28px" fill="#000000" text-anchor="start" style="white-space: pre;" direction="ltr">Host: www.manning.com</text><text x="0" y="98" font-family="Cascadia, Segoe UI Emoji" font-size="28px" fill="#000000" text-anchor="start" style="white-space: pre;" direction="ltr">...</text></g><g stroke-linecap="round"><g transform="translate(614.931377180001 429.7705398729893) rotate(0 -106.60194757975938 62.41126493789642)"><path d="M1.18 0.99 C-34.06 21.09, -176.79 102.13, -212.77 122.36 M-1.63 -0.94 C-37.01 19.45, -178.49 104.72, -214.38 125.76" stroke="#000000" stroke-width="4" fill="none"></path></g><g transform="translate(614.931377180001 429.7705398729893) rotate(0 -106.60194757975938 62.41126493789642)"><path d="M-193.99 104.18 C-200.5 107.4, -205.24 116.52, -217.72 122.87 M-196.18 104.25 C-202.77 107.8, -207.07 114.24, -216.35 124.61" stroke="#000000" stroke-width="4" fill="none"></path></g><g transform="translate(614.931377180001 429.7705398729893) rotate(0 -106.60194757975938 62.41126493789642)"><path d="M-183.49 121.82 C-192.87 120.68, -200.26 125.35, -217.72 122.87 M-185.69 121.89 C-195.19 120.33, -202.48 121.75, -216.35 124.61" stroke="#000000" stroke-width="4" fill="none"></path></g></g><g stroke-linecap="round"><g transform="translate(80.5 213.5) rotate(0 109.52940645451508 1.4161341214097547)"><path d="M2.79 0.95 C62.54 1.25, 120.45 -0.69, 217.86 -0.03 M1.2 1.13 C59.64 2.7, 122.11 4.82, 214.67 0.17" stroke="#000000" stroke-width="1" fill="none"></path></g></g><g stroke-linecap="round"><g transform="translate(86.5 182.5) rotate(0 107.75970996958617 0.35121829697871476)"><path d="M2.75 -1.19 C60.71 1.9, 117.78 0.91, 214.24 -1.53 M0.71 -1.4 C83.27 2.1, 162.63 0.75, 214.8 2.24" stroke="#000000" stroke-width="1" fill="none"></path></g></g><g stroke-linecap="round"><g transform="translate(88.5 198.5) rotate(0 107.41666492087683 1.2939919579110608)"><path d="M-1.19 2.79 C45.74 -0.83, 89.27 -3.3, 212.47 3.86 M-1.4 1.2 C59.28 -2.78, 115.71 -1.19, 216.24 0.67" stroke="#000000" stroke-width="1" fill="none"></path></g></g><g stroke-linecap="round"><g transform="translate(84.5 230.5) rotate(0 107.55984972667173 0.17628837622893911)"><path d="M0.95 1.92 C81.07 -3.38, 160.23 0.62, 213.97 0.45 M1.13 -1.51 C72.67 -2.43, 147.79 -2.22, 214.17 2.3" stroke="#000000" stroke-width="1" fill="none"></path></g></g><g stroke-linecap="round"><g transform="translate(86.5 252.5) rotate(0 107.39410817437857 0.3135254873661495)"><path d="M1.92 -0.31 C56.46 -3.29, 117.29 -1.52, 214.45 2.43 M-1.51 -0.6 C47.08 -0.97, 94.22 -2.82, 216.3 1.72" stroke="#000000" stroke-width="1" fill="none"></path></g></g><g stroke-linecap="round"><g transform="translate(81.5 274.5) rotate(0 107.91658069950887 0.9637231254945675)"><path d="M-0.31 -0.76 C79.08 1.18, 162.2 -1.85, 216.43 -1.81 M-0.6 -0.2 C80.46 3.3, 157.61 5.29, 215.72 2.21" stroke="#000000" stroke-width="1" fill="none"></path></g></g><g transform="translate(469 635.5) rotate(0 180.5 70)"><text x="0" y="28" font-family="Cascadia, Segoe UI Emoji" font-size="28px" fill="#000000" text-anchor="start" style="white-space: pre;" direction="ltr">200 OK</text><text x="0" y="63" font-family="Cascadia, Segoe UI Emoji" font-size="28px" fill="#000000" text-anchor="start" style="white-space: pre;" direction="ltr">...</text><text x="0" y="98" font-family="Cascadia, Segoe UI Emoji" font-size="28px" fill="#000000" text-anchor="start" style="white-space: pre;" direction="ltr">&lt;h1&gt;Manning Books&lt;/h1&gt;</text><text x="0" y="133" font-family="Cascadia, Segoe UI Emoji" font-size="28px" fill="#000000" text-anchor="start" style="white-space: pre;" direction="ltr">...</text></g><g transform="translate(420 581) rotate(0 108 18)"><text x="0" y="25" font-family="Virgil, Segoe UI Emoji" font-size="28px" fill="#c92a2a" text-anchor="start" style="white-space: pre;" direction="ltr">HTTP Response</text></g><g transform="translate(420 10) rotate(0 103 18)"><text x="0" y="25" font-family="Virgil, Segoe UI Emoji" font-size="28px" fill="#c92a2a" text-anchor="start" style="white-space: pre;" direction="ltr">HTTP Request</text></g><g stroke-linecap="round" transform="translate(603.1553242081926 1115.4375936144456) rotate(0 141.17147317742814 138.4566371547852)"><path d="M70.87 -3.18 L230.79 2.67 L253.04 5.55 L256.96 15.12 L266.7 24.4 L278.22 42.64 L281.56 61.77 L279.13 215.33 L277.48 246.66 L272.28 253.19 L263.66 266.63 L241.67 272.09 L224.94 274.33 L62.4 280.38 L32.78 271.5 L25.75 264.46 L13.42 251.1 L7.83 236.04 L0.69 215.58 L2.47 69.56 L1.46 42.34 L11.95 24.9 L21.65 13.16 L38.74 6.63 L69.15 -2.75" stroke="none" stroke-width="0" fill="#eeeeee"></path><path d="M69.23 0 M69.23 0 C115.85 0.78, 156.4 2.03, 213.11 0 M69.23 0 C121.8 -4.51, 177.58 -1.93, 213.11 0 M213.11 0 C255.84 1.51, 280 21.04, 282.34 69.23 M213.11 0 C260.12 -0.05, 282.26 25.14, 282.34 69.23 M282.34 69.23 C278.17 103.2, 277.33 129.76, 282.34 207.68 M282.34 69.23 C284.6 123.33, 284.79 177.8, 282.34 207.68 M282.34 207.68 C278.42 251.39, 257.91 280.54, 213.11 276.91 M282.34 207.68 C280.46 254.17, 263.65 272.44, 213.11 276.91 M213.11 276.91 C167.88 281.98, 117.3 278.45, 69.23 276.91 M213.11 276.91 C183.96 277.5, 152.53 280.06, 69.23 276.91 M69.23 276.91 C25.38 275.8, -0.01 253.08, 0 207.68 M69.23 276.91 C25.75 272.9, -2.08 251.07, 0 207.68 M0 207.68 C1.42 167.13, -1.14 128.95, 0 69.23 M0 207.68 C3.68 170.14, 0.5 136.96, 0 69.23 M0 69.23 C0.21 25.14, 24.36 1.96, 69.23 0 M0 69.23 C-0.65 22.72, 20.48 -3.83, 69.23 0" stroke="#000000" stroke-width="2" fill="none"></path></g><g transform="translate(676.6279580461152 1194.8565476709668) rotate(0 67.69883933950524 56.19446141253047)"><text x="67.69883933950523" y="39.19446141253049" font-family="Virgil, Segoe UI Emoji" font-size="43.731617109824874px" fill="#000000" text-anchor="middle" style="white-space: pre;" direction="ltr">HTTP</text><text x="67.69883933950523" y="95.38892282506097" font-family="Virgil, Segoe UI Emoji" font-size="43.731617109824874px" fill="#000000" text-anchor="middle" style="white-space: pre;" direction="ltr">Server</text></g><g stroke-linecap="round" transform="translate(10.501729436950995 910.9451488014888) rotate(0 159.17800912514036 128.3048511985112)"><path d="M-0.01 0.12 C66.66 3.41, 131.82 2.95, 317.71 1.33 M-0.63 -0.65 C127.26 0.3, 254.14 0.47, 317.95 -0.38 M319.51 1.29 C319.17 80.13, 321.11 164.45, 318.74 256.98 M318.07 0.16 C319.75 89.77, 319.27 179.19, 319.03 256.92 M319.69 256.48 C236.17 257.87, 152.71 257.46, 0.96 256.42 M318.28 256.55 C222.97 255.58, 126.3 254.61, -0.37 256.06 M-1.16 256.58 C-2.57 172.33, -2.43 88.87, -1.34 -1.52 M-0.58 256.86 C1.25 185.88, 1.38 114.46, 0.61 0.76" stroke="#000000" stroke-width="1" fill="none"></path></g><g stroke-linecap="round"><g transform="translate(13.179738562091302 947.25) rotate(0 158.27878397861497 1.617599566047943)"><path d="M0.06 1.06 C52.7 1.49, 263.1 2.32, 315.83 2.67 M-1.37 0.57 C51.62 0.64, 265.14 0.76, 317.93 0.89" stroke="#000000" stroke-width="1" fill="none"></path></g></g><g stroke-linecap="round" transform="translate(24.179738562091302 918.25) rotate(0 9 9.5)"><path d="M4.84 0.24 C4.84 0.24, 4.84 0.24, 4.84 0.24 M4.84 0.24 C4.84 0.24, 4.84 0.24, 4.84 0.24 M4.31 8.12 C5.29 6.88, 5.33 5.37, 9.7 -0.09 M2.95 8.09 C5.23 6.52, 6.63 4.39, 10.53 -0.66 M1.98 14.65 C4.63 9.39, 10.92 7.92, 13.57 0.9 M3.7 15.38 C5.74 11.23, 8.37 7.96, 14.91 1.66 M6.13 17.86 C9.56 13.94, 12.84 11.74, 16.33 5.72 M5.05 18.36 C7.7 14.62, 9.83 11.87, 17.2 4.1 M10.52 18.3 C12.74 16.72, 13.03 14.67, 17.1 11.27 M10.47 17.92 C12.59 15.66, 15.53 12.58, 17.1 10.25" stroke="#fa5252" stroke-width="0.5" fill="none"></path><path d="M12.47 0.19 C14.32 0.29, 15.58 1.55, 16.34 3.28 C17.11 5.01, 17.2 8.45, 17.03 10.56 C16.87 12.67, 16.52 14.64, 15.34 15.95 C14.16 17.26, 11.99 18.16, 9.96 18.4 C7.93 18.63, 4.69 18.33, 3.17 17.37 C1.66 16.41, 1.14 14.51, 0.89 12.64 C0.63 10.77, 0.93 8.26, 1.62 6.15 C2.31 4.04, 3.19 0.79, 5.04 0.01 C6.89 -0.78, 11.51 1.26, 12.72 1.43 C13.93 1.59, 12.43 0.94, 12.31 1 M12.74 0.98 C14.58 1.49, 15.57 3.13, 16.63 4.89 C17.7 6.66, 19.53 9.35, 19.14 11.55 C18.75 13.76, 15.9 16.65, 14.32 18.13 C12.73 19.61, 11.5 20.52, 9.65 20.42 C7.8 20.31, 4.7 19.04, 3.21 17.5 C1.73 15.96, 1.09 13.1, 0.76 11.17 C0.44 9.25, 0.47 7.69, 1.27 5.93 C2.07 4.18, 3.71 1.7, 5.55 0.65 C7.4 -0.41, 11.31 -0.39, 12.33 -0.4 C13.35 -0.42, 11.7 0.14, 11.69 0.56" stroke="#000000" stroke-width="1" fill="none"></path></g><g stroke-linecap="round" transform="translate(49.1797385620913 918.25) rotate(0 9 9.5)"><path d="M0.93 4.78 C0.93 4.78, 0.93 4.78, 0.93 4.78 M0.93 4.78 C0.93 4.78, 0.93 4.78, 0.93 4.78 M1.3 10.91 C4.3 6.5, 7.04 3.95, 8.61 1.34 M1.27 10.7 C3.56 8.26, 5.26 6.05, 8.03 2.04 M3.14 13.06 C5.39 11.81, 11.42 5.19, 13.37 1.22 M3.87 14.24 C6.21 10.28, 9.44 8.23, 14.14 1.52 M4.66 19.11 C7.2 15.99, 11.27 11.3, 17.78 4.02 M5.11 18.04 C8.68 12.78, 13.15 8.92, 16.33 4.8 M9.1 20.85 C12.9 14.91, 15.95 12.86, 20.43 9.04 M8.48 19.49 C13.65 15.36, 17.51 10.47, 18.78 7.92" stroke="#fab005" stroke-width="0.5" fill="none"></path><path d="M6.77 0.14 C8.22 -0.74, 10.4 -0.85, 12.16 0.1 C13.93 1.05, 16.5 3.76, 17.35 5.84 C18.2 7.92, 17.91 10.72, 17.24 12.57 C16.57 14.41, 14.87 15.74, 13.35 16.9 C11.83 18.07, 9.79 19.58, 8.11 19.55 C6.43 19.52, 4.49 18.35, 3.27 16.72 C2.05 15.08, 1.2 11.74, 0.82 9.75 C0.43 7.75, -0.38 6.3, 0.97 4.73 C2.33 3.15, 7.56 0.97, 8.95 0.3 C10.34 -0.38, 9.36 0.45, 9.29 0.68 M7.86 0.08 C9.64 -0.31, 12.07 1.58, 13.76 2.5 C15.46 3.42, 17.16 3.83, 18.03 5.61 C18.89 7.39, 19.46 11.18, 18.95 13.18 C18.43 15.17, 16.77 16.52, 14.96 17.57 C13.15 18.62, 10.25 19.76, 8.09 19.46 C5.92 19.16, 3.15 17.48, 1.98 15.79 C0.8 14.11, 1 11.33, 1.02 9.34 C1.04 7.35, 1.18 5.4, 2.09 3.84 C3 2.29, 5.61 0.46, 6.48 -0.01 C7.35 -0.49, 6.99 1.05, 7.29 1" stroke="#000000" stroke-width="1" fill="none"></path></g><g stroke-linecap="round" transform="translate(73.1797385620913 919.25) rotate(0 9 9.5)"><path d="M1.68 2.79 C1.68 2.79, 1.68 2.79, 1.68 2.79 M1.68 2.79 C1.68 2.79, 1.68 2.79, 1.68 2.79 M1.25 10.53 C2.35 7.72, 5.32 3.78, 7.2 1.29 M1.04 10.16 C2.35 8.19, 3.88 5.96, 7.9 1.88 M1.71 11.81 C6.88 11.37, 6.97 7.56, 13.15 0.8 M2.83 13.52 C6.11 9.3, 11.22 4.55, 13.42 0.65 M5.41 17.54 C9.51 14.25, 11.95 9.58, 14.83 5.52 M4.29 17.68 C8.15 12.93, 13.51 7.24, 15.66 4.61 M8.89 20.72 C9.35 17.44, 13.69 14.54, 19.66 9.56 M7.53 20.56 C11.93 16.02, 15.57 10.79, 18.54 7.69" stroke="#82c91e" stroke-width="0.5" fill="none"></path><path d="M12.99 0.14 C14.35 0.96, 15.59 3.92, 16.37 5.88 C17.15 7.84, 18.04 10.08, 17.68 11.92 C17.32 13.75, 15.94 15.7, 14.21 16.9 C12.49 18.09, 9.21 19.12, 7.35 19.1 C5.48 19.09, 4.13 18.19, 3.02 16.8 C1.92 15.41, 0.97 13.09, 0.73 10.79 C0.48 8.48, 0.34 4.55, 1.54 2.95 C2.73 1.35, 5.8 1.39, 7.91 1.19 C10.01 1, 12.97 1.52, 14.17 1.78 C15.36 2.05, 15.09 2.73, 15.08 2.76 M9.84 0.35 C11.74 0.45, 15.45 1.81, 16.7 3.46 C17.96 5.12, 17.36 8.11, 17.37 10.28 C17.39 12.45, 17.82 14.97, 16.77 16.48 C15.72 17.99, 12.92 19.08, 11.07 19.31 C9.22 19.55, 7.37 18.71, 5.68 17.89 C3.99 17.08, 1.86 16.24, 0.94 14.41 C0.02 12.58, -0.43 9.2, 0.14 6.92 C0.71 4.64, 2.76 1.9, 4.36 0.73 C5.96 -0.44, 8.72 -0.12, 9.75 -0.09 C10.78 -0.05, 10.78 0.99, 10.55 0.94" stroke="#000000" stroke-width="1" fill="none"></path></g><g stroke-linecap="round" transform="translate(33.501729436950995 1322.9451488014888) rotate(0 159.17800912514036 128.3048511985112)"><path d="M1.4 -0.25 C113.05 -3.38, 225.12 -2, 318.47 -0.53 M0.12 0.43 C106.38 1.72, 212.16 1.02, 317.78 0.65 M319.14 0.74 C319.91 100.88, 319.18 203.79, 318.86 256.53 M318.03 0.79 C320.33 82.92, 320 164.63, 318.68 256.53 M318.36 257 C218.81 256.15, 120.85 256.92, 0.66 255.27 M318.56 257.26 C251.65 254.35, 184.71 254.56, 0.12 256.38 M-0.36 255.02 C2.67 156.89, 2.23 57.9, 1.01 -1.33 M-0.02 256.96 C-1.12 168.92, -0.91 82.18, 0.05 -0.57" stroke="#000000" stroke-width="1" fill="none"></path></g><g transform="translate(48.1797385620913 1372.25) rotate(0 71 14.5)"><text x="0" y="22" font-family="Helvetica, Segoe UI Emoji" font-size="28px" fill="#000000" text-anchor="start" style="white-space: pre;" direction="ltr">Thank You!</text></g><g stroke-linecap="round"><g transform="translate(59.61912425386424 1437.25) rotate(0 133.86729250906865 -0.6075658993040634)"><path d="M-0.35 -2.83 C102.3 1.49, 210.63 0.55, 267.6 -0.59 M1.31 1.13 C66.73 -2.73, 129.63 -0.53, 268.08 1.62" stroke="#000000" stroke-width="1" fill="none"></path></g></g><g stroke-linecap="round"><g transform="translate(62.09891948445534 1457.088361844728) rotate(0 132.06147893731378 -0.6454171885031883)"><path d="M-2.83 -2.9 C106.76 1.22, 211.84 2.48, 264.75 -0.48 M1.13 1.27 C84.18 -4.4, 170.7 -1.2, 266.95 1.61" stroke="#000000" stroke-width="1" fill="none"></path></g></g><g stroke-linecap="round"><g transform="translate(52.1797385620913 1475.6868260741603) rotate(0 132.02362764811468 0.7234337842342029)"><path d="M-2.9 0.25 C75.46 2.94, 151.42 2.65, 264.86 1.79 M1.27 -0.45 C95.11 -1.11, 194.3 -1.73, 266.94 2.01" stroke="#000000" stroke-width="1" fill="none"></path></g></g><g stroke-linecap="round"><g transform="translate(57.13932902327326 1496.765085534184) rotate(0 133.4499875563253 1.0381408899636426)"><path d="M0.25 0.26 C75.83 5.24, 152.22 2.86, 267.13 3.18 M-0.45 -1.29 C103.59 -1.4, 204.65 -2.06, 267.35 1.97" stroke="#000000" stroke-width="1" fill="none"></path></g></g><g stroke-linecap="round"><g transform="translate(59.61912425386424 1524.0428330706845) rotate(0 133.61374869134707 1.281044711986283)"><path d="M0.26 -1.18 C57.06 -1.9, 110.38 0.74, 268.52 3.86 M-1.29 1.45 C100.54 2.03, 198.42 2.89, 267.31 2.28" stroke="#000000" stroke-width="1" fill="none"></path></g></g><g stroke-linecap="round"><g transform="translate(53.419636177386906 1551.3205806071855) rotate(0 134.00899897924347 1.9111423863847676)"><path d="M-1.18 1.02 C53.68 -1.8, 111.56 2.12, 269.2 3.49 M1.45 1.5 C101.74 4.29, 203.51 5.12, 267.62 0.67" stroke="#000000" stroke-width="1" fill="none"></path></g></g><g stroke-linecap="round"><g transform="translate(36.1797385620913 1360.25) rotate(0 159.10195551030338 1.0434584636241198)"><path d="M-0.45 0.39 C52.25 0.6, 263.36 0.95, 316.31 1.35 M1.51 -0.45 C54.6 -0.11, 266.15 2.33, 318.65 2.54" stroke="#000000" stroke-width="1" fill="none"></path></g></g><g stroke-linecap="round" transform="translate(47.1797385620913 1331.25) rotate(0 9 9.5)"><path d="M1.7 4.13 C1.7 4.13, 1.7 4.13, 1.7 4.13 M1.7 4.13 C1.7 4.13, 1.7 4.13, 1.7 4.13 M1.4 11.76 C2.55 9.37, 4.23 6.39, 8.48 2.76 M0.26 10.72 C3.03 9.61, 3.88 7.25, 8.48 2.06 M1.82 15.87 C5.11 11.34, 12.38 5.51, 13.85 0.49 M3.11 15.08 C7.28 10.97, 10.67 6.14, 13.72 2.28 M5.08 17.75 C8.17 13.6, 14.2 7.61, 16.01 5.19 M5.44 19.16 C7.25 15.51, 11.26 12.08, 17.4 6.09 M8.59 20.82 C13.37 16.26, 16.7 10.47, 19.39 8.01 M9.83 20.4 C12.23 15.38, 16.37 11.03, 19.28 8.12" stroke="#fa5252" stroke-width="0.5" fill="none"></path><path d="M7.41 1.06 C9.25 0.28, 12.04 -0.31, 13.52 0.56 C15 1.44, 15.44 4.39, 16.3 6.31 C17.16 8.24, 18.98 10.2, 18.67 12.1 C18.37 14, 16.12 16.46, 14.47 17.71 C12.82 18.97, 10.79 19.84, 8.77 19.63 C6.75 19.43, 3.71 17.97, 2.34 16.49 C0.98 15.01, 0.73 12.76, 0.59 10.74 C0.45 8.71, 0.26 6.03, 1.53 4.33 C2.79 2.64, 7.13 1.07, 8.17 0.55 C9.2 0.04, 7.78 0.97, 7.72 1.22 M8.44 0.16 C10.33 -0.18, 13.93 0.47, 15.49 1.75 C17.05 3.03, 17.69 5.85, 17.79 7.85 C17.89 9.84, 16.99 11.86, 16.08 13.71 C15.16 15.56, 13.83 18.36, 12.32 18.93 C10.81 19.5, 9.06 17.99, 7.01 17.14 C4.97 16.29, 1.42 15.23, 0.06 13.82 C-1.29 12.42, -1.81 10.56, -1.1 8.72 C-0.4 6.87, 2.86 4.2, 4.29 2.74 C5.73 1.29, 6.9 0.36, 7.51 -0.02 C8.13 -0.4, 7.88 0.07, 7.98 0.45" stroke="#000000" stroke-width="1" fill="none"></path></g><g stroke-linecap="round" transform="translate(72.1797385620913 1331.25) rotate(0 9 9.5)"><path d="M4.22 2.34 C4.22 2.34, 4.22 2.34, 4.22 2.34 M4.22 2.34 C4.22 2.34, 4.22 2.34, 4.22 2.34 M3.74 9.55 C5.02 7.54, 5.78 5.29, 11.01 0.16 M2.78 10.02 C5.21 7.38, 6.49 5.42, 10.36 1.51 M3.5 14.41 C8.29 12.33, 11.81 5.14, 13.51 3.53 M2.71 16.44 C8.02 10.32, 12.6 5.06, 15.3 3.18 M5.07 17.27 C9.98 14.23, 13.15 9.29, 17.2 5.09 M6.4 17.84 C9.88 14.55, 13.56 11.04, 18.04 6.16 M11.77 19.44 C13.89 16.43, 15.01 13.38, 18.45 10.71 M11.44 18.31 C12.69 16.45, 14.47 14.72, 18.54 9.27" stroke="#fab005" stroke-width="0.5" fill="none"></path><path d="M10.5 0.84 C12.18 0.61, 13.68 0.5, 15.08 1.96 C16.48 3.43, 18.63 7.42, 18.88 9.62 C19.14 11.83, 17.79 13.59, 16.61 15.18 C15.43 16.77, 13.61 18.71, 11.82 19.14 C10.03 19.57, 7.65 18.6, 5.86 17.75 C4.06 16.91, 1.92 15.86, 1.05 14.06 C0.17 12.27, 0.12 8.91, 0.62 6.99 C1.12 5.08, 2.34 3.76, 4.04 2.55 C5.73 1.34, 9.47 0.02, 10.79 -0.29 C12.11 -0.59, 11.88 0.53, 11.95 0.74 M10.95 1.21 C12.64 1.51, 14.6 2.33, 15.84 3.6 C17.09 4.87, 18.46 6.83, 18.41 8.84 C18.37 10.85, 16.81 13.87, 15.57 15.67 C14.33 17.46, 13.1 19.51, 10.98 19.6 C8.86 19.7, 4.75 17.62, 2.86 16.24 C0.98 14.87, -0.03 12.81, -0.33 11.33 C-0.63 9.86, 0.19 9.27, 1.07 7.39 C1.95 5.52, 3.33 1.37, 4.95 0.07 C6.57 -1.24, 9.76 -0.4, 10.77 -0.43 C11.78 -0.46, 10.83 -0.16, 11.01 -0.11" stroke="#000000" stroke-width="1" fill="none"></path></g><g stroke-linecap="round" transform="translate(96.1797385620913 1332.25) rotate(0 9 9.5)"><path d="M1.21 5.03 C1.21 5.03, 1.21 5.03, 1.21 5.03 M1.21 5.03 C1.21 5.03, 1.21 5.03, 1.21 5.03 M1 11.4 C3.09 7.97, 4.94 7.06, 7.14 2.46 M1.47 11.61 C3.04 8.69, 5.28 6.25, 8.48 3.57 M2.65 14.84 C9.6 9.12, 11.99 3.2, 15.55 3.16 M4.46 14.49 C6.22 11.57, 8.77 8.28, 15.24 2.25 M3.77 19.08 C8.01 15.15, 10.35 12.14, 15.58 6.38 M4.35 19.24 C8.46 15.48, 12.37 11.97, 16.64 6.29 M10.01 20.34 C11.98 16.23, 13.91 14.65, 19.58 8.61 M8.69 19.72 C11.18 17.07, 13.83 14.57, 17.89 9.91" stroke="#82c91e" stroke-width="0.5" fill="none"></path><path d="M12.53 0.16 C14.04 0.67, 14.73 3.53, 15.78 5.33 C16.84 7.14, 18.95 9.06, 18.87 11 C18.79 12.95, 16.8 15.57, 15.3 17.01 C13.79 18.45, 11.86 19.61, 9.83 19.65 C7.81 19.69, 4.66 18.53, 3.14 17.23 C1.63 15.92, 1.12 13.83, 0.76 11.85 C0.4 9.86, 0.04 7.08, 0.98 5.29 C1.92 3.5, 4.51 1.68, 6.41 1.1 C8.31 0.53, 11.11 1.62, 12.37 1.86 C13.63 2.1, 13.99 2.5, 13.98 2.54 M11.8 -0.02 C13.64 0.29, 15.16 2.39, 16.04 3.99 C16.92 5.58, 17.15 7.49, 17.08 9.57 C17.01 11.64, 16.62 15.12, 15.62 16.44 C14.61 17.75, 13.16 17.4, 11.05 17.47 C8.95 17.53, 4.92 17.57, 2.96 16.82 C1 16.07, -0.55 14.73, -0.71 12.97 C-0.87 11.22, 1.28 8.25, 2 6.27 C2.72 4.3, 2.25 2.1, 3.61 1.13 C4.97 0.16, 9.05 0.35, 10.16 0.44 C11.27 0.52, 10.39 1.76, 10.25 1.63" stroke="#000000" stroke-width="1" fill="none"></path></g><g stroke-linecap="round"><g transform="translate(347.1797385620913 1054.4794734117227) rotate(0 114.59254832498038 57.08141979290542)"><path d="M0.49 1.72 C39.4 20.97, 193.33 95.73, 231.88 113.97 M-2.69 0.19 C36.21 18.8, 191.92 91.1, 230.9 110.05" stroke="#000000" stroke-width="4" fill="none"></path></g><g transform="translate(347.1797385620913 1054.4794734117227) rotate(0 114.59254832498038 57.08141979290542)"><path d="M203.5 110.57 C211.09 111.03, 214.33 105.22, 234.58 113.86 M201.95 108.57 C210 108.27, 221.49 109.39, 230.81 110.45" stroke="#000000" stroke-width="4" fill="none"></path></g><g transform="translate(347.1797385620913 1054.4794734117227) rotate(0 114.59254832498038 57.08141979290542)"><path d="M212.28 92.03 C217.55 97.01, 218.66 95.69, 234.58 113.86 M210.74 90.02 C216.03 95.82, 224.67 102.95, 230.81 110.45" stroke="#000000" stroke-width="4" fill="none"></path></g></g><g transform="translate(432.1797385620913 936.75) rotate(0 172.49999999999994 70)"><text x="0" y="28" font-family="Cascadia, Segoe UI Emoji" font-size="28px" fill="#000000" text-anchor="start" style="white-space: pre;" direction="ltr">POST /sign-up</text><text x="0" y="63" font-family="Cascadia, Segoe UI Emoji" font-size="28px" fill="#000000" text-anchor="start" style="white-space: pre;" direction="ltr">Host: www.manning.com</text><text x="0" y="98" font-family="Cascadia, Segoe UI Emoji" font-size="28px" fill="#000000" text-anchor="start" style="white-space: pre;" direction="ltr">...</text><text x="0" y="133" font-family="Cascadia, Segoe UI Emoji" font-size="28px" fill="#000000" text-anchor="start" style="white-space: pre;" direction="ltr">email=joe@example.com</text></g><g stroke-linecap="round"><g transform="translate(581.1111157420925 1312.0205398729893) rotate(0 -105.18712753214243 62.903837345618854)"><path d="M2.33 2 C-33.03 22.05, -175.26 101.43, -211.68 121.99 M0.15 0.62 C-35.43 20.92, -177.57 105.09, -212.7 125.19" stroke="#000000" stroke-width="4" fill="none"></path></g><g transform="translate(581.1111157420925 1312.0205398729893) rotate(0 -105.18712753214243 62.903837345618854)"><path d="M-190.66 105.33 C-200.46 106.48, -201.74 120.9, -211.75 126.12 M-194.24 102.53 C-198.9 111.05, -206.79 118.87, -211.04 125.97" stroke="#000000" stroke-width="4" fill="none"></path></g><g transform="translate(581.1111157420925 1312.0205398729893) rotate(0 -105.18712753214243 62.903837345618854)"><path d="M-180.32 123.06 C-193.62 118.75, -198.18 127.54, -211.75 126.12 M-183.9 120.25 C-192.33 122.72, -203.82 124.37, -211.04 125.97" stroke="#000000" stroke-width="4" fill="none"></path></g></g><g transform="translate(434.1797385620913 1517.75) rotate(0 163.99999999999994 52.5)"><text x="0" y="28" font-family="Cascadia, Segoe UI Emoji" font-size="28px" fill="#000000" text-anchor="start" style="white-space: pre;" direction="ltr">302 Found</text><text x="0" y="63" font-family="Cascadia, Segoe UI Emoji" font-size="28px" fill="#000000" text-anchor="start" style="white-space: pre;" direction="ltr">Location: /thank-you</text><text x="0" y="98" font-family="Cascadia, Segoe UI Emoji" font-size="28px" fill="#000000" text-anchor="start" style="white-space: pre;" direction="ltr">...</text></g><g transform="translate(386.1797385620913 1463.25) rotate(0 108 18)"><text x="0" y="25" font-family="Virgil, Segoe UI Emoji" font-size="28px" fill="#c92a2a" text-anchor="start" style="white-space: pre;" direction="ltr">HTTP Response</text></g><g transform="translate(386.1797385620913 892.25) rotate(0 103 18)"><text x="0" y="25" font-family="Virgil, Segoe UI Emoji" font-size="28px" fill="#c92a2a" text-anchor="start" style="white-space: pre;" direction="ltr">HTTP Request</text></g><g transform="translate(33 964.5) rotate(0 50.5 14.5)"><text x="0" y="22" font-family="Helvetica, Segoe UI Emoji" font-size="28px" fill="#000000" text-anchor="start" style="white-space: pre;" direction="ltr">Sign Up</text></g><g stroke-linecap="round" transform="translate(40 1025) rotate(0 127.5 24.5)"><path d="M2.84 0.67 L253.45 2.29 L251.64 50.84 L0.48 46.37" stroke="none" stroke-width="0" fill="white"></path><path d="M-1.13 -1.55 C51.53 -2.32, 106.83 1.21, 258.2 -1.21 M1.41 -0.09 C82.56 -3.23, 167.02 -0.82, 254.31 1.11 M253.2 2.92 C253.03 14.9, 259.46 27.19, 253.68 49.51 M255.03 -0.5 C253.56 11.83, 253.58 24.01, 255.04 50.3 M255.59 50.75 C170.83 53.61, 83.15 51.16, -2.35 47.72 M255.58 47.42 C163.47 49.21, 72.37 48.82, -1.04 50.38 M-1.39 46.54 C2.29 28.56, -2.77 15.57, -2.52 -2.5 M1.86 50.83 C-1.04 32.46, -0.75 12.61, 1.68 -1.82" stroke="#495057" stroke-width="4" fill="none"></path></g><g transform="translate(45 1035) rotate(0 122.5 14.5)"><text x="122.5" y="22" font-family="Helvetica, Segoe UI Emoji" font-size="28px" fill="#495057" text-anchor="middle" style="white-space: pre;" direction="ltr">joe@example.com</text></g><g stroke-linecap="round" transform="translate(167.5 1096.5) rotate(0 64.5 22.5)"><path d="M2.76 -2.48 L132.51 1.42 L128.87 47.42 L0.97 42.23" stroke="none" stroke-width="0" fill="#228be6"></path><path d="M0.12 -2.97 C42.77 2.88, 94.05 1.37, 130.53 1.73 M0.41 1.13 C50.17 -0.42, 103.43 -1.89, 128.43 0.96 M128.84 0.16 C129.95 7.32, 132.93 25.13, 129.35 41.68 M127.91 1.79 C129.04 11.67, 130.32 26.51, 130.6 43.62 M131.25 47.91 C87.08 43.42, 43.51 47.25, 1.74 46.98 M128.19 44.66 C90.43 46.22, 52.77 47.07, -0.75 45.71 M3.81 46.76 C2.17 30.86, -3.14 14.67, -3.77 1.61 M-1.48 46.84 C-1.24 32.83, 1.16 17.46, -0.28 -1" stroke="whitesmoke" stroke-width="1" fill="none"></path></g><g transform="translate(172.5 1104.5) rotate(0 59.5 14.5)"><text x="59.5" y="22" font-family="Helvetica, Segoe UI Emoji" font-size="28px" fill="whitesmoke" text-anchor="middle" style="white-space: pre;" direction="ltr">Submit</text></g><g transform="translate(228.5 1169) rotate(0 57.5 18)"><text x="0" y="25" font-family="Virgil, Segoe UI Emoji" font-size="28px" fill="#c92a2a" text-anchor="start" style="white-space: pre;" direction="ltr">*submit*</text></g><g stroke-linecap="round"><g transform="translate(87.5 150.5) rotate(0 41.0123993922025 -1.4894170425832272)"><path d="M1.83 -4 C18.55 -1.63, 41.31 -3.83, 81.29 1.02 M-1.04 -0.07 C24.36 1.68, 53.57 -2.1, 83.06 -3.87" stroke="#000000" stroke-width="1" fill="none"></path></g></g><g stroke-linecap="round"><g transform="translate(88.5 123.5) rotate(0 66.38967772014439 -1.169652751646936)"><path d="M2.83 -3.17 C28.21 -1.26, 62.8 1.01, 131.33 -2.51 M0.65 -1.56 C31.05 -1.49, 59.45 -1.13, 132.13 0.83" stroke="#000000" stroke-width="1" fill="none"></path></g></g><g stroke-linecap="round"><g transform="translate(88.5 105.5) rotate(0 66.02866979129612 0.3579796461826277)"><path d="M-0.4 1.44 C32.37 3.83, 66.56 -0.36, 128.87 -0.05 M-0.61 -1.38 C31.6 -1.18, 60.76 -2.32, 132.66 0.22" stroke="#000000" stroke-width="1" fill="none"></path></g></g><g stroke-linecap="round"><g transform="translate(91.5 85.5) rotate(0 72.88895905669779 0.9836692893877625)"><path d="M-3.21 3.14 C42.91 -2.38, 81.45 -1.86, 145.92 3.01 M0.72 -1.18 C42.53 1.19, 82.93 1.13, 148.99 1.74" stroke="#000000" stroke-width="1" fill="none"></path></g></g></svg>