<?xml version="1.0" encoding="UTF-8" standalone="no"?>
<!-- Created with Inkscape (http://www.inkscape.org/) -->

<svg
   width="97.950531mm"
   height="57.954285mm"
   viewBox="0 0 97.950531 57.954285"
   version="1.1"
   id="svg3154"
   sodipodi:docname="separation-of-concerns.svg"
   inkscape:version="1.2.2 (b0a8486541, 2022-12-01)"
   xmlns:inkscape="http://www.inkscape.org/namespaces/inkscape"
   xmlns:sodipodi="http://sodipodi.sourceforge.net/DTD/sodipodi-0.dtd"
   xmlns="http://www.w3.org/2000/svg"
   xmlns:svg="http://www.w3.org/2000/svg">
  <sodipodi:namedview
     id="namedview3156"
     pagecolor="#ffffff"
     bordercolor="#111111"
     borderopacity="1"
     inkscape:showpageshadow="0"
     inkscape:pageopacity="0"
     inkscape:pagecheckerboard="1"
     inkscape:deskcolor="#d1d1d1"
     inkscape:document-units="mm"
     showgrid="false"
     inkscape:zoom="1.3505331"
     inkscape:cx="-29.617934"
     inkscape:cy="170.30312"
     inkscape:window-width="1920"
     inkscape:window-height="1003"
     inkscape:window-x="0"
     inkscape:window-y="0"
     inkscape:window-maximized="1"
     inkscape:current-layer="layer1" />
  <defs
     id="defs3151" />
  <g
     inkscape:label="Layer 1"
     inkscape:groupmode="layer"
     id="layer1"
     transform="translate(-30.617868,-34.200939)">
    <g
       aria-label=" EXPECTATION          REALITY

 HTML  CSS   JS       HTML  CSS   JS
┌────┐┌────┐┌────┐   ┌────┐┌────┐┌────┐
│    ││    ││    │   │    ││    ││    │
│ C  ││ C  ││ c  │   │ CO ││ NC ││ern │
│ O  ││ o  ││ o  │   │    ││    ││    │
│ N  ││ n  ││ n  │   │ Co ││ nc ││ERN │
│ C  ││ c  ││ c  │   │    ││    ││    │
│ E  ││ e  ││ e  │   │ co ││ NC ││ERN │
│ R  ││ r  ││ r  │   │    ││    ││    │
│ N  ││ n  ││ n  │   │ CO ││ NC ││ern │
│    ││    ││    │   │    ││    ││    │
└────┘└────┘└────┘   └────┘└────┘└────┘"
       id="text3329"
       style="font-weight:bold;font-size:4.23333px;line-height:1;font-family:'Berkeley Mono Variable';-inkscape-font-specification:'Berkeley Mono Variable Bold';stroke-width:0.264583">
      <path
         d="m 33.640459,34.243273 h 1.595966 v 0.330199 h -1.231899 v 0.884766 h 1.071032 v 0.3302 h -1.071032 v 1.003299 h 1.316565 v 0.3302 h -1.680632 z"
         style="font-weight:normal;-inkscape-font-specification:'Berkeley Mono Variable'"
         id="path11228" />
      <path
         d="m 36.773117,35.614871 -0.825499,-1.380065 h 0.389466 l 0.618066,1.071032 h 0.0254 l 0.601133,-1.071032 h 0.410633 l -0.825499,1.380065 0.872066,1.507066 h -0.4064 L 36.98055,35.936604 h -0.01693 l -0.664633,1.185333 h -0.402166 z"
         style="font-weight:normal;-inkscape-font-specification:'Berkeley Mono Variable'"
         id="path11230" />
      <path
         d="m 39.253842,34.230573 q 0.486833,0 0.745066,0.08043 0.258233,0.08043 0.368299,0.275166 0.110067,0.194733 0.110067,0.5588 0,0.338666 -0.09737,0.529166 -0.09313,0.186267 -0.317499,0.2667 -0.220133,0.08043 -0.626533,0.08043 h -0.372533 v 1.100666 h -0.364066 v -2.878664 z m 0.143933,1.456265 q 0.2794,0 0.4318,-0.0508 0.156633,-0.0508 0.220133,-0.169333 0.06773,-0.122767 0.06773,-0.3429 0,-0.224366 -0.07197,-0.3429 -0.06773,-0.122766 -0.237066,-0.169333 -0.1651,-0.0508 -0.4826,-0.0508 h -0.262466 v 1.126066 z"
         style="font-weight:normal;-inkscape-font-specification:'Berkeley Mono Variable'"
         id="path11232" />
      <path
         d="m 41.260434,34.243273 h 1.595965 v 0.330199 H 41.6245 v 0.884766 h 1.071032 v 0.3302 H 41.6245 v 1.003299 h 1.316565 v 0.3302 h -1.680631 z"
         style="font-weight:normal;-inkscape-font-specification:'Berkeley Mono Variable'"
         id="path11234" />
      <path
         d="m 44.697891,37.16427 q -0.4064,0 -0.626533,-0.131233 -0.220133,-0.131233 -0.313266,-0.4445 -0.0889,-0.317499 -0.0889,-0.901699 0,-0.588433 0.0889,-0.901699 0.09313,-0.3175 0.309033,-0.448733 0.220133,-0.135467 0.626532,-0.135467 0.2921,0 0.465667,0.06773 0.1778,0.06773 0.270933,0.228599 0.09313,0.160867 0.118533,0.4445 h -0.359833 q -0.02963,-0.182033 -0.0889,-0.275166 -0.05503,-0.09313 -0.143933,-0.122767 -0.0889,-0.03387 -0.2413,-0.03387 -0.270933,0 -0.4191,0.1016 -0.143933,0.1016 -0.203199,0.351367 -0.05927,0.245533 -0.05927,0.715432 0,0.4699 0.05927,0.719666 0.05927,0.249767 0.198966,0.3556 0.143933,0.1016 0.410633,0.1016 0.249767,0 0.359833,-0.0889 0.110067,-0.0889 0.1524,-0.321733 h 0.359833 q -0.0254,0.275166 -0.122766,0.4318 -0.09737,0.156633 -0.2794,0.224366 -0.182033,0.0635 -0.474133,0.0635 z"
         style="font-weight:normal;-inkscape-font-specification:'Berkeley Mono Variable'"
         id="path11236" />
      <path
         d="m 46.941549,34.577706 h -0.778933 v -0.334433 h 1.926165 v 0.334433 h -0.783166 v 2.544231 h -0.364066 z"
         style="font-weight:normal;-inkscape-font-specification:'Berkeley Mono Variable'"
         id="path11238" />
      <path
         d="m 49.396874,34.243273 h 0.550333 l 0.825499,2.878664 h -0.359833 l -0.211666,-0.728133 h -1.062566 l -0.207433,0.728133 h -0.359833 z m 0.723899,1.833031 -0.431799,-1.523998 h -0.03387 l -0.4318,1.523998 z"
         style="font-weight:normal;-inkscape-font-specification:'Berkeley Mono Variable'"
         id="path11240" />
      <path
         d="m 52.021532,34.577706 h -0.778933 v -0.334433 h 1.926165 v 0.334433 h -0.783166 v 2.544231 h -0.364066 z"
         style="font-weight:normal;-inkscape-font-specification:'Berkeley Mono Variable'"
         id="path11242" />
      <path
         d="m 54.02389,36.787504 h 0.541867 v -2.209798 h -0.512233 v -0.334433 h 1.388532 v 0.334433 h -0.512233 v 2.209798 h 0.537633 v 0.334433 H 54.02389 Z"
         style="font-weight:normal;-inkscape-font-specification:'Berkeley Mono Variable'"
         id="path11244" />
      <path
         d="m 57.287781,37.16427 q -0.389466,0 -0.605366,-0.131233 -0.2159,-0.135467 -0.309033,-0.448733 -0.0889,-0.3175 -0.0889,-0.893233 0,-0.584199 0.0889,-0.901699 0.09313,-0.321733 0.3048,-0.452966 0.215899,-0.135467 0.609599,-0.135467 0.389466,0 0.601133,0.135467 0.2159,0.135466 0.3048,0.452966 0.09313,0.3175 0.09313,0.901699 0,0.575733 -0.09313,0.893233 -0.0889,0.313266 -0.3048,0.448733 -0.211667,0.131233 -0.601133,0.131233 z m 0,-0.325966 q 0.249767,0 0.385233,-0.1016 0.135467,-0.105833 0.1905,-0.347133 0.05927,-0.245533 0.05927,-0.6985 0,-0.457199 -0.05927,-0.706966 -0.05503,-0.249766 -0.1905,-0.351366 -0.135466,-0.105833 -0.385233,-0.105833 -0.254,0 -0.389466,0.105833 -0.135467,0.1016 -0.194733,0.351366 -0.05503,0.249767 -0.05503,0.706966 0,0.452967 0.05503,0.6985 0.05927,0.2413 0.194733,0.347133 0.135466,0.1016 0.389466,0.1016 z"
         style="font-weight:normal;-inkscape-font-specification:'Berkeley Mono Variable'"
         id="path11246" />
      <path
         d="m 58.866807,34.243273 h 0.427566 l 1.168399,2.379131 h 0.02117 l -0.05503,-0.5842 v -1.794931 h 0.3556 v 2.878664 h -0.4318 L 59.18854,34.742805 h -0.02117 l 0.05503,0.5842 v 1.794932 h -0.355599 z"
         style="font-weight:normal;-inkscape-font-specification:'Berkeley Mono Variable'"
         id="path11248" />
      <path
         d="m 86.878678,34.243273 0.423333,-0.0127 q 0.537633,-0.01693 0.817033,0.05503 0.283633,0.06773 0.3937,0.2413 0.1143,0.169333 0.122766,0.495299 0.0085,0.237067 -0.0381,0.385233 -0.04657,0.148167 -0.160866,0.2286 -0.1143,0.08043 -0.3175,0.105833 v 0.0254 q 0.194733,0.03387 0.283633,0.143933 0.0889,0.105834 0.160867,0.372534 l 0.220133,0.838199 h -0.402166 l -0.186267,-0.838199 q -0.0508,-0.232834 -0.1778,-0.3175 -0.127,-0.08467 -0.423333,-0.08467 h -0.351366 v 1.240366 h -0.364067 z m 0.986366,1.299632 q 0.237067,-0.0042 0.325967,-0.1143 0.0889,-0.110067 0.0889,-0.389466 0,-0.1778 -0.0381,-0.2667 -0.03387,-0.09313 -0.127,-0.135467 -0.0889,-0.04657 -0.270933,-0.06773 -0.156634,-0.01693 -0.2667,-0.01693 -0.110067,0 -0.334433,0.01693 v 0.977899 z"
         style="font-weight:normal;-inkscape-font-specification:'Berkeley Mono Variable'"
         id="path11250" />
      <path
         d="m 89.520268,34.243273 h 1.595965 v 0.330199 h -1.231899 v 0.884766 h 1.071033 v 0.3302 h -1.071033 v 1.003299 H 91.2009 v 0.3302 h -1.680632 z"
         style="font-weight:normal;-inkscape-font-specification:'Berkeley Mono Variable'"
         id="path11252" />
      <path
         d="m 92.576727,34.243273 h 0.550333 l 0.8255,2.878664 H 93.592726 L 93.38106,36.393804 h -1.062566 l -0.207433,0.728133 h -0.359833 z m 0.7239,1.833031 -0.4318,-1.523998 h -0.03387 l -0.431799,1.523998 z"
         style="font-weight:normal;-inkscape-font-specification:'Berkeley Mono Variable'"
         id="path11254" />
      <path
         d="m 94.608721,34.243273 h 0.364066 v 2.539997 h 1.396999 v 0.334433 h -1.761065 z"
         style="font-weight:normal;-inkscape-font-specification:'Berkeley Mono Variable'"
         id="path11256" />
      <path
         d="m 97.203748,36.787504 h 0.541866 v -2.209798 h -0.512233 v -0.334433 h 1.388532 v 0.334433 H 98.10968 v 2.209798 h 0.537633 v 0.334433 h -1.443565 z"
         style="font-weight:normal;-inkscape-font-specification:'Berkeley Mono Variable'"
         id="path11258" />
      <path
         d="m 100.28137,34.577706 h -0.778937 v -0.334433 h 1.926167 v 0.334433 h -0.78317 v 2.544231 h -0.36406 z"
         style="font-weight:normal;-inkscape-font-specification:'Berkeley Mono Variable'"
         id="path11260" />
      <path
         d="m 102.82136,35.949304 -0.8255,-1.714498 h 0.3937 l 0.60537,1.329265 h 0.0212 l 0.6096,-1.329265 h 0.38947 l -0.82973,1.714498 v 1.172633 h -0.36407 z"
         style="font-weight:normal;-inkscape-font-specification:'Berkeley Mono Variable'"
         id="path11262" />
      <path
         d="m 33.48806,42.709932 h 0.364066 v 1.210732 h 1.151466 v -1.210732 h 0.364066 v 2.878664 h -0.364066 v -1.333499 h -1.151466 v 1.333499 H 33.48806 Z"
         style="font-weight:normal;-inkscape-font-specification:'Berkeley Mono Variable'"
         id="path11264" />
      <path
         d="m 36.781584,43.044365 h -0.778933 v -0.334433 h 1.926165 v 0.334433 H 37.14565 v 2.544231 h -0.364066 z"
         style="font-weight:normal;-inkscape-font-specification:'Berkeley Mono Variable'"
         id="path11266" />
      <path
         d="m 38.479142,42.709932 h 0.4826 l 0.5207,1.447799 h 0.04657 l 0.5207,-1.447799 h 0.482599 v 2.878664 h -0.347133 v -1.794931 l 0.04233,-0.626533 h -0.02117 l -0.529166,1.401232 h -0.3429 l -0.529166,-1.401232 h -0.02117 l 0.04233,0.626533 v 1.794931 h -0.347133 z"
         style="font-weight:normal;-inkscape-font-specification:'Berkeley Mono Variable'"
         id="path11268" />
      <path
         d="m 41.2689,42.709932 h 0.364067 v 2.539998 h 1.396998 v 0.334433 H 41.2689 Z"
         style="font-weight:normal;-inkscape-font-specification:'Berkeley Mono Variable'"
         id="path11270" />
      <path
         d="m 49.777874,45.63093 q -0.4064,0 -0.626533,-0.131234 -0.220133,-0.131233 -0.313267,-0.444499 -0.0889,-0.3175 -0.0889,-0.901699 0,-0.588433 0.0889,-0.9017 0.09313,-0.317499 0.309033,-0.448733 0.220134,-0.135466 0.626533,-0.135466 0.2921,0 0.465667,0.06773 0.177799,0.06773 0.270933,0.2286 0.09313,0.160866 0.118533,0.4445 H 50.26894 q -0.02963,-0.182034 -0.0889,-0.275167 -0.05503,-0.09313 -0.143933,-0.122766 -0.0889,-0.03387 -0.2413,-0.03387 -0.270933,0 -0.4191,0.1016 -0.143933,0.1016 -0.2032,0.351366 -0.05927,0.245533 -0.05927,0.715433 0,0.469899 0.05927,0.719666 0.05927,0.249766 0.198967,0.3556 0.143933,0.1016 0.410633,0.1016 0.249766,0 0.359833,-0.0889 0.110067,-0.0889 0.1524,-0.321733 h 0.359833 q -0.0254,0.275166 -0.122767,0.431799 -0.09737,0.156633 -0.279399,0.224367 -0.182034,0.0635 -0.474133,0.0635 z"
         style="font-weight:normal;-inkscape-font-specification:'Berkeley Mono Variable'"
         id="path11272" />
      <path
         d="m 52.207798,45.61823 q -0.393699,0 -0.601132,-0.06773 -0.207434,-0.06773 -0.296334,-0.232833 -0.08467,-0.169333 -0.08467,-0.482599 h 0.3683 q 0.01693,0.186266 0.0762,0.283633 0.05927,0.09313 0.182033,0.135466 0.127,0.0381 0.364066,0.04233 0.2413,0.0042 0.372533,-0.02963 0.131233,-0.0381 0.1905,-0.127 0.05927,-0.0889 0.05927,-0.262466 0,-0.1778 -0.06773,-0.287866 -0.06773,-0.110067 -0.2286,-0.194734 -0.160866,-0.0889 -0.474132,-0.186266 -0.334434,-0.105833 -0.508,-0.207433 -0.169333,-0.105834 -0.2413,-0.249767 -0.07197,-0.148166 -0.07197,-0.389466 0,-0.275167 0.08467,-0.4191 0.08467,-0.148166 0.283633,-0.207433 0.2032,-0.0635 0.575733,-0.0635 0.364066,0 0.5588,0.05927 0.194733,0.05927 0.279399,0.2032 0.0889,0.143933 0.105834,0.419099 h -0.364067 q -0.01693,-0.148166 -0.07197,-0.224366 -0.05503,-0.0762 -0.173567,-0.105833 -0.1143,-0.02963 -0.325966,-0.02963 -0.237067,0 -0.3683,0.0381 -0.127,0.03387 -0.182033,0.1143 -0.0508,0.0762 -0.0508,0.220133 0,0.143933 0.06773,0.237067 0.06773,0.09313 0.2286,0.173566 0.160867,0.0762 0.486833,0.186267 0.325966,0.1143 0.495299,0.224366 0.173567,0.110067 0.2413,0.270933 0.07197,0.156633 0.07197,0.423333 0,0.2921 -0.0889,0.448733 -0.08467,0.156633 -0.2921,0.224367 -0.207433,0.0635 -0.601133,0.0635 z"
         style="font-weight:normal;-inkscape-font-specification:'Berkeley Mono Variable'"
         id="path11274" />
      <path
         d="m 54.74779,45.61823 q -0.3937,0 -0.601133,-0.06773 -0.207433,-0.06773 -0.296333,-0.232833 -0.08467,-0.169333 -0.08467,-0.482599 h 0.3683 q 0.01693,0.186266 0.0762,0.283633 0.05927,0.09313 0.182033,0.135466 0.127,0.0381 0.364066,0.04233 0.2413,0.0042 0.372533,-0.02963 0.131234,-0.0381 0.1905,-0.127 0.05927,-0.0889 0.05927,-0.262466 0,-0.1778 -0.06773,-0.287866 -0.06773,-0.110067 -0.2286,-0.194734 -0.160867,-0.0889 -0.474133,-0.186266 -0.334433,-0.105833 -0.508,-0.207433 -0.169333,-0.105834 -0.241299,-0.249767 -0.07197,-0.148166 -0.07197,-0.389466 0,-0.275167 0.08467,-0.4191 0.08467,-0.148166 0.283633,-0.207433 0.203199,-0.0635 0.575732,-0.0635 0.364067,0 0.5588,0.05927 0.194733,0.05927 0.2794,0.2032 0.0889,0.143933 0.105833,0.419099 h -0.364066 q -0.01693,-0.148166 -0.07197,-0.224366 -0.05503,-0.0762 -0.173567,-0.105833 -0.114299,-0.02963 -0.325966,-0.02963 -0.237066,0 -0.3683,0.0381 -0.126999,0.03387 -0.182033,0.1143 -0.0508,0.0762 -0.0508,0.220133 0,0.143933 0.06773,0.237067 0.06773,0.09313 0.228599,0.173566 0.160867,0.0762 0.486833,0.186267 0.325967,0.1143 0.4953,0.224366 0.173566,0.110067 0.2413,0.270933 0.07197,0.156633 0.07197,0.423333 0,0.2921 -0.0889,0.448733 -0.08467,0.156633 -0.292099,0.224367 -0.207434,0.0635 -0.601133,0.0635 z"
         style="font-weight:normal;-inkscape-font-specification:'Berkeley Mono Variable'"
         id="path11276" />
      <path
         d="m 64.814624,45.626696 q -0.3302,0 -0.508,-0.07197 -0.177799,-0.07197 -0.253999,-0.2413 -0.07197,-0.169333 -0.07197,-0.4826 h 0.364066 q 0.0042,0.186267 0.04657,0.283633 0.04657,0.09737 0.1397,0.1397 0.09737,0.0381 0.270933,0.0381 0.198966,0 0.3048,-0.04657 0.105833,-0.04657 0.1524,-0.160867 0.04657,-0.118533 0.04657,-0.334433 v -2.040465 h 0.364067 v 2.057398 q 0,0.338667 -0.08043,0.524933 -0.0762,0.182033 -0.258233,0.258233 -0.182033,0.0762 -0.516466,0.0762 z"
         style="font-weight:normal;-inkscape-font-specification:'Berkeley Mono Variable'"
         id="path11278" />
      <path
         d="m 67.447747,45.61823 q -0.3937,0 -0.601133,-0.06773 -0.207433,-0.06773 -0.296333,-0.232833 -0.08467,-0.169333 -0.08467,-0.482599 h 0.3683 q 0.01693,0.186266 0.0762,0.283633 0.05927,0.09313 0.182033,0.135466 0.127,0.0381 0.364066,0.04233 0.2413,0.0042 0.372533,-0.02963 0.131234,-0.0381 0.1905,-0.127 0.05927,-0.0889 0.05927,-0.262466 0,-0.1778 -0.06773,-0.287866 -0.06773,-0.110067 -0.2286,-0.194734 -0.160867,-0.0889 -0.474133,-0.186266 -0.334433,-0.105833 -0.508,-0.207433 -0.169333,-0.105834 -0.2413,-0.249767 -0.07197,-0.148166 -0.07197,-0.389466 0,-0.275167 0.08467,-0.4191 0.08467,-0.148166 0.283633,-0.207433 0.2032,-0.0635 0.575733,-0.0635 0.364067,0 0.5588,0.05927 0.194733,0.05927 0.2794,0.2032 0.0889,0.143933 0.105833,0.419099 H 68.01078 q -0.01693,-0.148166 -0.07197,-0.224366 -0.05503,-0.0762 -0.173567,-0.105833 -0.1143,-0.02963 -0.325966,-0.02963 -0.237066,0 -0.3683,0.0381 -0.127,0.03387 -0.182033,0.1143 -0.0508,0.0762 -0.0508,0.220133 0,0.143933 0.06773,0.237067 0.06773,0.09313 0.2286,0.173566 0.160867,0.0762 0.486833,0.186267 0.325967,0.1143 0.4953,0.224366 0.173566,0.110067 0.2413,0.270933 0.07197,0.156633 0.07197,0.423333 0,0.2921 -0.0889,0.448733 -0.08467,0.156633 -0.2921,0.224367 -0.207433,0.0635 -0.601132,0.0635 z"
         style="font-weight:normal;-inkscape-font-specification:'Berkeley Mono Variable'"
         id="path11280" />
      <path
         d="m 86.827878,42.709932 h 0.364067 v 1.210732 h 1.151466 v -1.210732 h 0.364066 v 2.878664 h -0.364066 v -1.333499 h -1.151466 v 1.333499 h -0.364067 z"
         style="font-weight:normal;-inkscape-font-specification:'Berkeley Mono Variable'"
         id="path11282" />
      <path
         d="m 90.121401,43.044365 h -0.778933 v -0.334433 h 1.926165 v 0.334433 h -0.783166 v 2.544231 h -0.364066 z"
         style="font-weight:normal;-inkscape-font-specification:'Berkeley Mono Variable'"
         id="path11284" />
      <path
         d="m 91.818961,42.709932 h 0.4826 l 0.520699,1.447799 h 0.04657 l 0.5207,-1.447799 h 0.482599 v 2.878664 h -0.347133 v -1.794931 l 0.04233,-0.626533 h -0.02117 l -0.529166,1.401232 h -0.3429 l -0.529166,-1.401232 h -0.02117 l 0.04233,0.626533 v 1.794931 h -0.347133 z"
         style="font-weight:normal;-inkscape-font-specification:'Berkeley Mono Variable'"
         id="path11286" />
      <path
         d="m 94.608721,42.709932 h 0.364066 v 2.539998 h 1.396999 v 0.334433 h -1.761065 z"
         style="font-weight:normal;-inkscape-font-specification:'Berkeley Mono Variable'"
         id="path11288" />
      <path
         d="m 103.11769,45.63093 q -0.4064,0 -0.62653,-0.131234 -0.22013,-0.131233 -0.31327,-0.444499 -0.0889,-0.3175 -0.0889,-0.901699 0,-0.588433 0.0889,-0.9017 0.0931,-0.317499 0.30904,-0.448733 0.22013,-0.135466 0.62653,-0.135466 0.2921,0 0.46567,0.06773 0.1778,0.06773 0.27093,0.2286 0.0931,0.160866 0.11853,0.4445 h -0.35983 q -0.0296,-0.182034 -0.0889,-0.275167 -0.055,-0.09313 -0.14393,-0.122766 -0.0889,-0.03387 -0.2413,-0.03387 -0.27094,0 -0.4191,0.1016 -0.14394,0.1016 -0.2032,0.351366 -0.0593,0.245533 -0.0593,0.715433 0,0.469899 0.0593,0.719666 0.0593,0.249766 0.19896,0.3556 0.14394,0.1016 0.41064,0.1016 0.24976,0 0.35983,-0.0889 0.11007,-0.0889 0.1524,-0.321733 h 0.35983 q -0.0254,0.275166 -0.12276,0.431799 -0.0974,0.156633 -0.2794,0.224367 -0.18204,0.0635 -0.47414,0.0635 z"
         style="font-weight:normal;-inkscape-font-specification:'Berkeley Mono Variable'"
         id="path11290" />
      <path
         d="m 105.54762,45.61823 q -0.3937,0 -0.60113,-0.06773 -0.20744,-0.06773 -0.29634,-0.232833 -0.0847,-0.169333 -0.0847,-0.482599 h 0.3683 q 0.0169,0.186266 0.0762,0.283633 0.0593,0.09313 0.18203,0.135466 0.127,0.0381 0.36407,0.04233 0.2413,0.0042 0.37253,-0.02963 0.13123,-0.0381 0.1905,-0.127 0.0593,-0.0889 0.0593,-0.262466 0,-0.1778 -0.0677,-0.287866 -0.0677,-0.110067 -0.2286,-0.194734 -0.16086,-0.0889 -0.47413,-0.186266 -0.33443,-0.105833 -0.508,-0.207433 -0.16933,-0.105834 -0.2413,-0.249767 -0.072,-0.148166 -0.072,-0.389466 0,-0.275167 0.0847,-0.4191 0.0847,-0.148166 0.28363,-0.207433 0.2032,-0.0635 0.57574,-0.0635 0.36406,0 0.5588,0.05927 0.19473,0.05927 0.2794,0.2032 0.0889,0.143933 0.10583,0.419099 h -0.36407 q -0.0169,-0.148166 -0.072,-0.224366 -0.055,-0.0762 -0.17357,-0.105833 -0.1143,-0.02963 -0.32597,-0.02963 -0.23706,0 -0.3683,0.0381 -0.127,0.03387 -0.18203,0.1143 -0.0508,0.0762 -0.0508,0.220133 0,0.143933 0.0677,0.237067 0.0677,0.09313 0.2286,0.173566 0.16087,0.0762 0.48684,0.186267 0.32596,0.1143 0.4953,0.224366 0.17356,0.110067 0.2413,0.270933 0.072,0.156633 0.072,0.423333 0,0.2921 -0.0889,0.448733 -0.0847,0.156633 -0.2921,0.224367 -0.20743,0.0635 -0.60113,0.0635 z"
         style="font-weight:normal;-inkscape-font-specification:'Berkeley Mono Variable'"
         id="path11292" />
      <path
         d="m 108.0876,45.61823 q -0.39369,0 -0.60113,-0.06773 -0.20743,-0.06773 -0.29633,-0.232833 -0.0847,-0.169333 -0.0847,-0.482599 h 0.3683 q 0.0169,0.186266 0.0762,0.283633 0.0593,0.09313 0.18204,0.135466 0.127,0.0381 0.36406,0.04233 0.2413,0.0042 0.37253,-0.02963 0.13124,-0.0381 0.1905,-0.127 0.0593,-0.0889 0.0593,-0.262466 0,-0.1778 -0.0677,-0.287866 -0.0677,-0.110067 -0.2286,-0.194734 -0.16087,-0.0889 -0.47413,-0.186266 -0.33444,-0.105833 -0.508,-0.207433 -0.16934,-0.105834 -0.2413,-0.249767 -0.072,-0.148166 -0.072,-0.389466 0,-0.275167 0.0847,-0.4191 0.0847,-0.148166 0.28363,-0.207433 0.2032,-0.0635 0.57573,-0.0635 0.36407,0 0.5588,0.05927 0.19473,0.05927 0.2794,0.2032 0.0889,0.143933 0.10583,0.419099 h -0.36406 q -0.0169,-0.148166 -0.072,-0.224366 -0.055,-0.0762 -0.17357,-0.105833 -0.1143,-0.02963 -0.32596,-0.02963 -0.23707,0 -0.3683,0.0381 -0.127,0.03387 -0.18203,0.1143 -0.0508,0.0762 -0.0508,0.220133 0,0.143933 0.0677,0.237067 0.0677,0.09313 0.2286,0.173566 0.16087,0.0762 0.48683,0.186267 0.32597,0.1143 0.4953,0.224366 0.17357,0.110067 0.2413,0.270933 0.072,0.156633 0.072,0.423333 0,0.2921 -0.0889,0.448733 -0.0847,0.156633 -0.2921,0.224367 -0.20744,0.0635 -0.60114,0.0635 z"
         style="font-weight:normal;-inkscape-font-specification:'Berkeley Mono Variable'"
         id="path11294" />
      <path
         d="m 118.15444,45.626696 q -0.33019,0 -0.50799,-0.07197 -0.1778,-0.07197 -0.254,-0.2413 -0.072,-0.169333 -0.072,-0.4826 h 0.36407 q 0.004,0.186267 0.0466,0.283633 0.0466,0.09737 0.1397,0.1397 0.0974,0.0381 0.27093,0.0381 0.19897,0 0.3048,-0.04657 0.10584,-0.04657 0.1524,-0.160867 0.0466,-0.118533 0.0466,-0.334433 v -2.040465 h 0.36407 v 2.057398 q 0,0.338667 -0.0804,0.524933 -0.0762,0.182033 -0.25823,0.258233 -0.18203,0.0762 -0.51647,0.0762 z"
         style="font-weight:normal;-inkscape-font-specification:'Berkeley Mono Variable'"
         id="path11296" />
      <path
         d="m 120.78756,45.61823 q -0.3937,0 -0.60113,-0.06773 -0.20743,-0.06773 -0.29633,-0.232833 -0.0847,-0.169333 -0.0847,-0.482599 h 0.3683 q 0.0169,0.186266 0.0762,0.283633 0.0593,0.09313 0.18203,0.135466 0.127,0.0381 0.36407,0.04233 0.2413,0.0042 0.37253,-0.02963 0.13124,-0.0381 0.1905,-0.127 0.0593,-0.0889 0.0593,-0.262466 0,-0.1778 -0.0677,-0.287866 -0.0677,-0.110067 -0.2286,-0.194734 -0.16087,-0.0889 -0.47414,-0.186266 -0.33443,-0.105833 -0.508,-0.207433 -0.16933,-0.105834 -0.2413,-0.249767 -0.072,-0.148166 -0.072,-0.389466 0,-0.275167 0.0847,-0.4191 0.0847,-0.148166 0.28364,-0.207433 0.2032,-0.0635 0.57573,-0.0635 0.36407,0 0.5588,0.05927 0.19473,0.05927 0.2794,0.2032 0.0889,0.143933 0.10583,0.419099 h -0.36406 q -0.0169,-0.148166 -0.072,-0.224366 -0.055,-0.0762 -0.17357,-0.105833 -0.1143,-0.02963 -0.32596,-0.02963 -0.23707,0 -0.3683,0.0381 -0.127,0.03387 -0.18204,0.1143 -0.0508,0.0762 -0.0508,0.220133 0,0.143933 0.0677,0.237067 0.0677,0.09313 0.2286,0.173566 0.16086,0.0762 0.48683,0.186267 0.32597,0.1143 0.4953,0.224366 0.17357,0.110067 0.2413,0.270933 0.072,0.156633 0.072,0.423333 0,0.2921 -0.0889,0.448733 -0.0847,0.156633 -0.2921,0.224367 -0.20744,0.0635 -0.60114,0.0635 z"
         style="font-weight:normal;-inkscape-font-specification:'Berkeley Mono Variable'"
         id="path11298" />
      <path
         d="m 31.731234,48.153994 h 0.3175 v 2.700865 h -0.3175 z m 0,0 h 1.426632 v 0.3175 h -1.426632 z"
         style="font-weight:normal;-inkscape-font-specification:'Berkeley Mono Variable'"
         id="path11300" />
      <path
         d="m 33.15786,48.158228 h 2.539998 v 0.317499 H 33.15786 Z"
         style="font-weight:normal;-inkscape-font-specification:'Berkeley Mono Variable'"
         id="path11302" />
      <path
         d="m 35.697851,48.158228 h 2.539998 v 0.317499 h -2.539998 z"
         style="font-weight:normal;-inkscape-font-specification:'Berkeley Mono Variable'"
         id="path11304" />
      <path
         d="m 38.237843,48.158228 h 2.539997 v 0.317499 h -2.539997 z"
         style="font-weight:normal;-inkscape-font-specification:'Berkeley Mono Variable'"
         id="path11306" />
      <path
         d="m 40.777834,48.158228 h 2.539998 v 0.317499 h -2.539998 z"
         style="font-weight:normal;-inkscape-font-specification:'Berkeley Mono Variable'"
         id="path11308" />
      <path
         d="m 44.431191,48.158228 h 0.3175 v 2.696631 h -0.3175 z m -1.113366,0 h 1.430866 v 0.317499 h -1.430866 z"
         style="font-weight:normal;-inkscape-font-specification:'Berkeley Mono Variable'"
         id="path11310" />
      <path
         d="m 46.971182,48.153994 h 0.3175 v 2.700865 h -0.3175 z m 0,0 h 1.426633 v 0.3175 h -1.426633 z"
         style="font-weight:normal;-inkscape-font-specification:'Berkeley Mono Variable'"
         id="path11312" />
      <path
         d="m 48.397808,48.158228 h 2.539998 v 0.317499 h -2.539998 z"
         style="font-weight:normal;-inkscape-font-specification:'Berkeley Mono Variable'"
         id="path11314" />
      <path
         d="m 50.937799,48.158228 h 2.539998 v 0.317499 h -2.539998 z"
         style="font-weight:normal;-inkscape-font-specification:'Berkeley Mono Variable'"
         id="path11316" />
      <path
         d="m 53.477791,48.158228 h 2.539998 v 0.317499 h -2.539998 z"
         style="font-weight:normal;-inkscape-font-specification:'Berkeley Mono Variable'"
         id="path11318" />
      <path
         d="m 56.017782,48.158228 h 2.539998 v 0.317499 h -2.539998 z"
         style="font-weight:normal;-inkscape-font-specification:'Berkeley Mono Variable'"
         id="path11320" />
      <path
         d="m 59.671139,48.158228 h 0.3175 v 2.696631 h -0.3175 z m -1.113365,0 h 1.430865 v 0.317499 h -1.430865 z"
         style="font-weight:normal;-inkscape-font-specification:'Berkeley Mono Variable'"
         id="path11322" />
      <path
         d="m 62.211131,48.153994 h 0.317499 v 2.700865 h -0.317499 z m 0,0 h 1.426632 v 0.3175 h -1.426632 z"
         style="font-weight:normal;-inkscape-font-specification:'Berkeley Mono Variable'"
         id="path11324" />
      <path
         d="m 63.637758,48.158228 h 2.539998 v 0.317499 h -2.539998 z"
         style="font-weight:normal;-inkscape-font-specification:'Berkeley Mono Variable'"
         id="path11326" />
      <path
         d="m 66.177748,48.158228 h 2.539998 v 0.317499 h -2.539998 z"
         style="font-weight:normal;-inkscape-font-specification:'Berkeley Mono Variable'"
         id="path11328" />
      <path
         d="m 68.717737,48.158228 h 2.539998 v 0.317499 h -2.539998 z"
         style="font-weight:normal;-inkscape-font-specification:'Berkeley Mono Variable'"
         id="path11330" />
      <path
         d="m 71.25773,48.158228 h 2.539998 v 0.317499 H 71.25773 Z"
         style="font-weight:normal;-inkscape-font-specification:'Berkeley Mono Variable'"
         id="path11332" />
      <path
         d="m 74.91109,48.158228 h 0.317499 v 2.696631 H 74.91109 Z m -1.113366,0 h 1.430865 v 0.317499 h -1.430865 z"
         style="font-weight:normal;-inkscape-font-specification:'Berkeley Mono Variable'"
         id="path11334" />
      <path
         d="m 85.071055,48.153994 h 0.3175 v 2.700865 h -0.3175 z m 0,0 h 1.426632 v 0.3175 h -1.426632 z"
         style="font-weight:normal;-inkscape-font-specification:'Berkeley Mono Variable'"
         id="path11336" />
      <path
         d="m 86.497679,48.158228 h 2.539998 v 0.317499 h -2.539998 z"
         style="font-weight:normal;-inkscape-font-specification:'Berkeley Mono Variable'"
         id="path11338" />
      <path
         d="m 89.037668,48.158228 h 2.539998 v 0.317499 h -2.539998 z"
         style="font-weight:normal;-inkscape-font-specification:'Berkeley Mono Variable'"
         id="path11340" />
      <path
         d="m 91.577662,48.158228 h 2.539997 v 0.317499 h -2.539997 z"
         style="font-weight:normal;-inkscape-font-specification:'Berkeley Mono Variable'"
         id="path11342" />
      <path
         d="m 94.117655,48.158228 h 2.539998 v 0.317499 h -2.539998 z"
         style="font-weight:normal;-inkscape-font-specification:'Berkeley Mono Variable'"
         id="path11344" />
      <path
         d="m 97.771014,48.158228 h 0.3175 v 2.696631 h -0.3175 z m -1.113366,0 h 1.430866 v 0.317499 h -1.430866 z"
         style="font-weight:normal;-inkscape-font-specification:'Berkeley Mono Variable'"
         id="path11346" />
      <path
         d="m 100.311,48.153994 h 0.3175 v 2.700865 h -0.3175 z m 0,0 h 1.42663 v 0.3175 H 100.311 Z"
         style="font-weight:normal;-inkscape-font-specification:'Berkeley Mono Variable'"
         id="path11348" />
      <path
         d="m 101.73763,48.158228 h 2.53999 v 0.317499 h -2.53999 z"
         style="font-weight:normal;-inkscape-font-specification:'Berkeley Mono Variable'"
         id="path11350" />
      <path
         d="m 104.27762,48.158228 h 2.54 v 0.317499 h -2.54 z"
         style="font-weight:normal;-inkscape-font-specification:'Berkeley Mono Variable'"
         id="path11352" />
      <path
         d="m 106.81761,48.158228 h 2.53999 v 0.317499 h -2.53999 z"
         style="font-weight:normal;-inkscape-font-specification:'Berkeley Mono Variable'"
         id="path11354" />
      <path
         d="m 109.3576,48.158228 h 2.54 v 0.317499 h -2.54 z"
         style="font-weight:normal;-inkscape-font-specification:'Berkeley Mono Variable'"
         id="path11356" />
      <path
         d="m 113.01096,48.158228 h 0.3175 v 2.696631 h -0.3175 z m -1.11337,0 h 1.43087 v 0.317499 h -1.43087 z"
         style="font-weight:normal;-inkscape-font-specification:'Berkeley Mono Variable'"
         id="path11358" />
      <path
         d="m 115.55095,48.153994 h 0.3175 v 2.700865 h -0.3175 z m 0,0 h 1.42663 v 0.3175 h -1.42663 z"
         style="font-weight:normal;-inkscape-font-specification:'Berkeley Mono Variable'"
         id="path11360" />
      <path
         d="m 116.97758,48.158228 h 2.54 v 0.317499 h -2.54 z"
         style="font-weight:normal;-inkscape-font-specification:'Berkeley Mono Variable'"
         id="path11362" />
      <path
         d="m 119.51756,48.158228 h 2.54 v 0.317499 h -2.54 z"
         style="font-weight:normal;-inkscape-font-specification:'Berkeley Mono Variable'"
         id="path11364" />
      <path
         d="m 122.05756,48.158228 h 2.54 v 0.317499 h -2.54 z"
         style="font-weight:normal;-inkscape-font-specification:'Berkeley Mono Variable'"
         id="path11366" />
      <path
         d="m 124.59755,48.158228 h 2.54 v 0.317499 h -2.54 z"
         style="font-weight:normal;-inkscape-font-specification:'Berkeley Mono Variable'"
         id="path11368" />
      <path
         d="m 128.2509,48.158228 h 0.3175 v 2.696631 h -0.3175 z m -1.11336,0 h 1.43086 v 0.317499 h -1.43086 z"
         style="font-weight:normal;-inkscape-font-specification:'Berkeley Mono Variable'"
         id="path11370" />
      <path
         d="m 31.731234,50.008193 h 0.3175 v 5.079995 h -0.3175 z"
         style="font-weight:normal;-inkscape-font-specification:'Berkeley Mono Variable'"
         id="path11372" />
      <path
         d="m 44.431191,50.008193 h 0.3175 v 5.079995 h -0.3175 z"
         style="font-weight:normal;-inkscape-font-specification:'Berkeley Mono Variable'"
         id="path11374" />
      <path
         d="m 46.971182,50.008193 h 0.3175 v 5.079995 h -0.3175 z"
         style="font-weight:normal;-inkscape-font-specification:'Berkeley Mono Variable'"
         id="path11376" />
      <path
         d="m 59.671139,50.008193 h 0.3175 v 5.079995 h -0.3175 z"
         style="font-weight:normal;-inkscape-font-specification:'Berkeley Mono Variable'"
         id="path11378" />
      <path
         d="m 62.211131,50.008193 h 0.317499 v 5.079995 h -0.317499 z"
         style="font-weight:normal;-inkscape-font-specification:'Berkeley Mono Variable'"
         id="path11380" />
      <path
         d="m 74.91109,50.008193 h 0.317499 v 5.079995 H 74.91109 Z"
         style="font-weight:normal;-inkscape-font-specification:'Berkeley Mono Variable'"
         id="path11382" />
      <path
         d="m 85.071055,50.008193 h 0.3175 v 5.079995 h -0.3175 z"
         style="font-weight:normal;-inkscape-font-specification:'Berkeley Mono Variable'"
         id="path11384" />
      <path
         d="m 97.771014,50.008193 h 0.3175 v 5.079995 h -0.3175 z"
         style="font-weight:normal;-inkscape-font-specification:'Berkeley Mono Variable'"
         id="path11386" />
      <path
         d="m 100.311,50.008193 h 0.3175 v 5.079995 h -0.3175 z"
         style="font-weight:normal;-inkscape-font-specification:'Berkeley Mono Variable'"
         id="path11388" />
      <path
         d="m 113.01096,50.008193 h 0.3175 v 5.079995 h -0.3175 z"
         style="font-weight:normal;-inkscape-font-specification:'Berkeley Mono Variable'"
         id="path11390" />
      <path
         d="m 115.55095,50.008193 h 0.3175 v 5.079995 h -0.3175 z"
         style="font-weight:normal;-inkscape-font-specification:'Berkeley Mono Variable'"
         id="path11392" />
      <path
         d="m 128.2509,50.008193 h 0.3175 v 5.079995 h -0.3175 z"
         style="font-weight:normal;-inkscape-font-specification:'Berkeley Mono Variable'"
         id="path11394" />
      <path
         d="m 31.731234,54.241522 h 0.3175 v 5.079996 h -0.3175 z"
         style="font-weight:normal;-inkscape-font-specification:'Berkeley Mono Variable'"
         id="path11396" />
      <path
         d="m 37.077917,58.330919 q -0.4064,0 -0.626533,-0.131233 -0.220133,-0.131233 -0.313267,-0.4445 -0.0889,-0.3175 -0.0889,-0.901699 0,-0.588433 0.0889,-0.901699 0.09313,-0.3175 0.309034,-0.448733 0.220133,-0.135467 0.626532,-0.135467 0.2921,0 0.465667,0.06773 0.177799,0.06773 0.270933,0.2286 0.09313,0.160867 0.118533,0.4445 h -0.359833 q -0.02963,-0.182033 -0.0889,-0.275167 -0.05503,-0.09313 -0.143933,-0.122766 -0.0889,-0.03387 -0.2413,-0.03387 -0.270933,0 -0.4191,0.1016 -0.143933,0.1016 -0.203199,0.351366 -0.05927,0.245534 -0.05927,0.715433 0,0.4699 0.05927,0.719666 0.05927,0.249767 0.198966,0.3556 0.143933,0.1016 0.410633,0.1016 0.249766,0 0.359833,-0.0889 0.110067,-0.0889 0.1524,-0.321733 h 0.359833 q -0.0254,0.275166 -0.122767,0.4318 -0.09737,0.156633 -0.279399,0.224366 -0.182034,0.0635 -0.474133,0.0635 z"
         style="font-weight:normal;-inkscape-font-specification:'Berkeley Mono Variable'"
         id="path11398" />
      <path
         d="m 44.431191,54.241522 h 0.3175 v 5.079996 h -0.3175 z"
         style="font-weight:normal;-inkscape-font-specification:'Berkeley Mono Variable'"
         id="path11400" />
      <path
         d="m 46.971182,54.241522 h 0.3175 v 5.079996 h -0.3175 z"
         style="font-weight:normal;-inkscape-font-specification:'Berkeley Mono Variable'"
         id="path11402" />
      <path
         d="m 52.317865,58.330919 q -0.4064,0 -0.626533,-0.131233 -0.220133,-0.131233 -0.313266,-0.4445 -0.0889,-0.3175 -0.0889,-0.901699 0,-0.588433 0.0889,-0.901699 0.09313,-0.3175 0.309033,-0.448733 0.220133,-0.135467 0.626533,-0.135467 0.292099,0 0.465666,0.06773 0.1778,0.06773 0.270933,0.2286 0.09313,0.160867 0.118533,0.4445 h -0.359833 q -0.02963,-0.182033 -0.0889,-0.275167 -0.05503,-0.09313 -0.143933,-0.122766 -0.0889,-0.03387 -0.2413,-0.03387 -0.270933,0 -0.419099,0.1016 -0.143934,0.1016 -0.2032,0.351366 -0.05927,0.245534 -0.05927,0.715433 0,0.4699 0.05927,0.719666 0.05927,0.249767 0.198966,0.3556 0.143934,0.1016 0.410633,0.1016 0.249767,0 0.359833,-0.0889 0.110067,-0.0889 0.1524,-0.321733 h 0.359833 q -0.0254,0.275166 -0.122766,0.4318 -0.09737,0.156633 -0.2794,0.224366 -0.182033,0.0635 -0.474133,0.0635 z"
         style="font-weight:normal;-inkscape-font-specification:'Berkeley Mono Variable'"
         id="path11404" />
      <path
         d="m 59.671139,54.241522 h 0.3175 v 5.079996 h -0.3175 z"
         style="font-weight:normal;-inkscape-font-specification:'Berkeley Mono Variable'"
         id="path11406" />
      <path
         d="m 62.211131,54.241522 h 0.317499 v 5.079996 h -0.317499 z"
         style="font-weight:normal;-inkscape-font-specification:'Berkeley Mono Variable'"
         id="path11408" />
      <path
         d="m 67.51548,58.330919 q -0.376766,0 -0.5842,-0.1016 -0.203199,-0.105833 -0.292099,-0.347133 -0.08467,-0.245533 -0.08467,-0.698499 0,-0.4572 0.08467,-0.702733 0.0889,-0.249767 0.292099,-0.351367 0.2032,-0.105833 0.575733,-0.105833 0.313267,0 0.486833,0.0635 0.173567,0.0635 0.254,0.2159 0.08043,0.148167 0.09737,0.423333 h -0.351367 q -0.04233,-0.220133 -0.1397,-0.300566 -0.09737,-0.08043 -0.321733,-0.08043 -0.245533,0 -0.376766,0.0762 -0.131233,0.0762 -0.1905,0.258233 -0.05503,0.1778 -0.05503,0.512233 0,0.321733 0.05503,0.4953 0.05927,0.173566 0.1905,0.249766 0.135466,0.07197 0.381,0.07197 0.220133,0 0.313266,-0.06773 0.09737,-0.07197 0.143933,-0.2667 h 0.351367 q -0.01693,0.258233 -0.09737,0.397933 -0.08043,0.1397 -0.254,0.198966 -0.169333,0.05927 -0.478366,0.05927 z"
         style="font-weight:normal;-inkscape-font-specification:'Berkeley Mono Variable'"
         id="path11410" />
      <path
         d="m 74.91109,54.241522 h 0.317499 v 5.079996 H 74.91109 Z"
         style="font-weight:normal;-inkscape-font-specification:'Berkeley Mono Variable'"
         id="path11412" />
      <path
         d="m 85.071055,54.241522 h 0.3175 v 5.079996 h -0.3175 z"
         style="font-weight:normal;-inkscape-font-specification:'Berkeley Mono Variable'"
         id="path11414" />
      <path
         d="m 90.417734,58.330919 q -0.4064,0 -0.626533,-0.131233 -0.220133,-0.131233 -0.313266,-0.4445 -0.0889,-0.3175 -0.0889,-0.901699 0,-0.588433 0.0889,-0.901699 0.09313,-0.3175 0.309033,-0.448733 0.220133,-0.135467 0.626532,-0.135467 0.2921,0 0.465667,0.06773 0.1778,0.06773 0.270933,0.2286 0.09313,0.160867 0.118533,0.4445 H 90.9088 q -0.02963,-0.182033 -0.0889,-0.275167 -0.05503,-0.09313 -0.143933,-0.122766 -0.0889,-0.03387 -0.2413,-0.03387 -0.270933,0 -0.4191,0.1016 -0.143933,0.1016 -0.203199,0.351366 -0.05927,0.245534 -0.05927,0.715433 0,0.4699 0.05927,0.719666 0.05927,0.249767 0.198966,0.3556 0.143933,0.1016 0.410633,0.1016 0.249767,0 0.359833,-0.0889 0.110067,-0.0889 0.1524,-0.321733 h 0.359833 q -0.0254,0.275166 -0.122767,0.4318 -0.09737,0.156633 -0.279399,0.224366 -0.182034,0.0635 -0.474133,0.0635 z"
         style="font-weight:normal;-inkscape-font-specification:'Berkeley Mono Variable'"
         id="path11416" />
      <path
         d="m 92.84766,58.330919 q -0.389466,0 -0.605366,-0.131233 -0.2159,-0.135467 -0.309033,-0.448733 -0.0889,-0.3175 -0.0889,-0.893233 0,-0.584199 0.0889,-0.901699 0.09313,-0.321733 0.3048,-0.452966 0.2159,-0.135467 0.609599,-0.135467 0.389467,0 0.601133,0.135467 0.2159,0.135466 0.3048,0.452966 0.09313,0.3175 0.09313,0.901699 0,0.575733 -0.09313,0.893233 -0.0889,0.313266 -0.3048,0.448733 -0.211666,0.131233 -0.601133,0.131233 z m 0,-0.325966 q 0.249767,0 0.385233,-0.1016 0.135467,-0.105834 0.1905,-0.347133 0.05927,-0.245534 0.05927,-0.6985 0,-0.457199 -0.05927,-0.706966 -0.05503,-0.249766 -0.1905,-0.351366 -0.135466,-0.105833 -0.385233,-0.105833 -0.253999,0 -0.389466,0.105833 -0.135466,0.1016 -0.194733,0.351366 -0.05503,0.249767 -0.05503,0.706966 0,0.452966 0.05503,0.6985 0.05927,0.241299 0.194733,0.347133 0.135467,0.1016 0.389466,0.1016 z"
         style="font-weight:normal;-inkscape-font-specification:'Berkeley Mono Variable'"
         id="path11418" />
      <path
         d="m 97.771014,54.241522 h 0.3175 v 5.079996 h -0.3175 z"
         style="font-weight:normal;-inkscape-font-specification:'Berkeley Mono Variable'"
         id="path11420" />
      <path
         d="m 100.311,54.241522 h 0.3175 v 5.079996 h -0.3175 z"
         style="font-weight:normal;-inkscape-font-specification:'Berkeley Mono Variable'"
         id="path11422" />
      <path
         d="m 104.58665,55.409921 h 0.42757 l 1.1684,2.379132 h 0.0212 l -0.055,-0.5842 v -1.794932 h 0.3556 v 2.878665 h -0.4318 l -1.16416,-2.379132 h -0.0212 l 0.055,0.5842 v 1.794932 h -0.3556 z"
         style="font-weight:normal;-inkscape-font-specification:'Berkeley Mono Variable'"
         id="path11424" />
      <path
         d="m 108.19767,58.330919 q -0.4064,0 -0.62653,-0.131233 -0.22013,-0.131233 -0.31327,-0.4445 -0.0889,-0.3175 -0.0889,-0.901699 0,-0.588433 0.0889,-0.901699 0.0931,-0.3175 0.30904,-0.448733 0.22013,-0.135467 0.62653,-0.135467 0.2921,0 0.46566,0.06773 0.1778,0.06773 0.27094,0.2286 0.0931,0.160867 0.11853,0.4445 h -0.35983 q -0.0296,-0.182033 -0.0889,-0.275167 -0.055,-0.09313 -0.14394,-0.122766 -0.0889,-0.03387 -0.2413,-0.03387 -0.27093,0 -0.41909,0.1016 -0.14394,0.1016 -0.2032,0.351366 -0.0593,0.245534 -0.0593,0.715433 0,0.4699 0.0593,0.719666 0.0593,0.249767 0.19896,0.3556 0.14394,0.1016 0.41063,0.1016 0.24977,0 0.35984,-0.0889 0.11006,-0.0889 0.1524,-0.321733 h 0.35983 q -0.0254,0.275166 -0.12277,0.4318 -0.0974,0.156633 -0.2794,0.224366 -0.18203,0.0635 -0.47413,0.0635 z"
         style="font-weight:normal;-inkscape-font-specification:'Berkeley Mono Variable'"
         id="path11426" />
      <path
         d="m 113.01096,54.241522 h 0.3175 v 5.079996 h -0.3175 z"
         style="font-weight:normal;-inkscape-font-specification:'Berkeley Mono Variable'"
         id="path11428" />
      <path
         d="m 115.55095,54.241522 h 0.3175 v 5.079996 h -0.3175 z"
         style="font-weight:normal;-inkscape-font-specification:'Berkeley Mono Variable'"
         id="path11430" />
      <path
         d="m 118.27721,58.330919 q -0.37253,0 -0.57573,-0.1016 -0.19897,-0.105833 -0.28787,-0.351366 -0.0847,-0.249767 -0.0847,-0.706966 0,-0.448733 0.0804,-0.690033 0.0847,-0.245533 0.2794,-0.347133 0.19473,-0.105833 0.55456,-0.105833 0.35984,0 0.55457,0.114299 0.19473,0.110067 0.27517,0.381 0.0804,0.2667 0.072,0.757766 h -1.46049 q 0.0127,0.2921 0.0677,0.448733 0.0593,0.156633 0.1778,0.224367 0.12276,0.0635 0.3429,0.0635 0.21166,0 0.3048,-0.0635 0.0974,-0.0635 0.15663,-0.237067 h 0.3683 q -0.0466,0.2413 -0.13547,0.372533 -0.0889,0.131233 -0.24976,0.186267 -0.16087,0.05503 -0.44027,0.05503 z m 0.52917,-1.358899 q -0.008,-0.249766 -0.0635,-0.381 -0.0508,-0.135466 -0.16934,-0.190499 -0.1143,-0.05927 -0.3302,-0.05927 -0.2032,0 -0.3175,0.05927 -0.11006,0.05503 -0.16509,0.190499 -0.055,0.131234 -0.072,0.381 z"
         style="font-weight:normal;-inkscape-font-specification:'Berkeley Mono Variable'"
         id="path11432" />
      <path
         d="m 120.13986,56.078788 h 0.33867 l -0.0127,0.520699 h 0.0339 q 0.11853,-0.270933 0.18626,-0.376766 0.072,-0.105834 0.1524,-0.127 0.0804,-0.0254 0.27517,-0.02963 v 0 q 0.41063,-0.0042 0.5461,0.0042 v 0.334433 q -0.1905,-0.0085 -0.37677,-0.0042 -0.18203,0 -0.25823,0.0127 -0.12277,0.02117 -0.24977,0.135466 -0.127,0.110067 -0.21166,0.2794 -0.0804,0.1651 -0.0804,0.3429 v 1.117599 h -0.3429 z"
         style="font-weight:normal;-inkscape-font-specification:'Berkeley Mono Variable'"
         id="path11434" />
      <path
         d="m 122.44279,56.078788 h 0.3556 v 0.321733 h 0.0296 q 0.0931,-0.220134 0.23284,-0.296333 0.14393,-0.08043 0.4318,-0.08043 0.2794,0 0.4318,0.0762 0.1524,0.0762 0.2159,0.258233 0.0677,0.1778 0.0677,0.508 v 1.422399 h -0.35137 V 56.85772 q 0,-0.198966 -0.0466,-0.309033 -0.0423,-0.110066 -0.14394,-0.1524 -0.0974,-0.04657 -0.28363,-0.04657 -0.2286,0 -0.3556,0.07197 -0.12277,0.07197 -0.1778,0.2413 -0.0508,0.1651 -0.0508,0.474133 v 1.151466 h -0.3556 z"
         style="font-weight:normal;-inkscape-font-specification:'Berkeley Mono Variable'"
         id="path11436" />
      <path
         d="m 128.2509,54.241522 h 0.3175 v 5.079996 h -0.3175 z"
         style="font-weight:normal;-inkscape-font-specification:'Berkeley Mono Variable'"
         id="path11438" />
      <path
         d="m 31.731234,58.474852 h 0.3175 v 5.079996 h -0.3175 z"
         style="font-weight:normal;-inkscape-font-specification:'Berkeley Mono Variable'"
         id="path11440" />
      <path
         d="m 36.96785,62.564249 q -0.389466,0 -0.605366,-0.131233 -0.2159,-0.135467 -0.309033,-0.448733 -0.0889,-0.3175 -0.0889,-0.893233 0,-0.5842 0.0889,-0.901699 0.09313,-0.321733 0.3048,-0.452967 0.215899,-0.135466 0.609599,-0.135466 0.389466,0 0.601133,0.135466 0.2159,0.135467 0.3048,0.452967 0.09313,0.317499 0.09313,0.901699 0,0.575733 -0.09313,0.893233 -0.0889,0.313266 -0.3048,0.448733 -0.211667,0.131233 -0.601133,0.131233 z m 0,-0.325967 q 0.249767,0 0.385233,-0.1016 0.135467,-0.105833 0.1905,-0.347133 0.05927,-0.245533 0.05927,-0.698499 0,-0.4572 -0.05927,-0.706966 -0.05503,-0.249767 -0.1905,-0.351366 -0.135466,-0.105834 -0.385233,-0.105834 -0.254,0 -0.389466,0.105834 -0.135467,0.101599 -0.194733,0.351366 -0.05503,0.249766 -0.05503,0.706966 0,0.452966 0.05503,0.698499 0.05927,0.2413 0.194733,0.347133 0.135466,0.1016 0.389466,0.1016 z"
         style="font-weight:normal;-inkscape-font-specification:'Berkeley Mono Variable'"
         id="path11442" />
      <path
         d="m 44.431191,58.474852 h 0.3175 v 5.079996 h -0.3175 z"
         style="font-weight:normal;-inkscape-font-specification:'Berkeley Mono Variable'"
         id="path11444" />
      <path
         d="m 46.971182,58.474852 h 0.3175 v 5.079996 h -0.3175 z"
         style="font-weight:normal;-inkscape-font-specification:'Berkeley Mono Variable'"
         id="path11446" />
      <path
         d="m 52.203565,62.564249 q -0.372533,0 -0.575733,-0.1016 -0.198966,-0.105833 -0.283633,-0.351367 -0.08467,-0.245533 -0.08467,-0.698499 0,-0.4572 0.08467,-0.702733 0.08467,-0.245533 0.283633,-0.347133 0.2032,-0.105833 0.575733,-0.105833 0.372533,0 0.575733,0.105833 0.2032,0.1016 0.287866,0.351367 0.08467,0.245533 0.08467,0.698499 0,0.452966 -0.08467,0.698499 -0.08467,0.245534 -0.287866,0.351367 -0.2032,0.1016 -0.575733,0.1016 z m 0,-0.3175 q 0.232833,0 0.359833,-0.07197 0.127,-0.0762 0.1778,-0.253999 0.05503,-0.1778 0.05503,-0.508 0,-0.334433 -0.05503,-0.512233 -0.0508,-0.1778 -0.1778,-0.254 -0.127,-0.0762 -0.359833,-0.0762 -0.232833,0 -0.359833,0.0762 -0.122767,0.0762 -0.1778,0.254 -0.0508,0.1778 -0.0508,0.512233 0,0.3302 0.0508,0.508 0.05503,0.177799 0.1778,0.253999 0.127,0.07197 0.359833,0.07197 z"
         style="font-weight:normal;-inkscape-font-specification:'Berkeley Mono Variable'"
         id="path11448" />
      <path
         d="m 59.671139,58.474852 h 0.3175 v 5.079996 h -0.3175 z"
         style="font-weight:normal;-inkscape-font-specification:'Berkeley Mono Variable'"
         id="path11450" />
      <path
         d="m 62.211131,58.474852 h 0.317499 v 5.079996 h -0.317499 z"
         style="font-weight:normal;-inkscape-font-specification:'Berkeley Mono Variable'"
         id="path11452" />
      <path
         d="m 67.443513,62.564249 q -0.372533,0 -0.575733,-0.1016 -0.198966,-0.105833 -0.283633,-0.351367 -0.08467,-0.245533 -0.08467,-0.698499 0,-0.4572 0.08467,-0.702733 0.08467,-0.245533 0.283633,-0.347133 0.2032,-0.105833 0.575733,-0.105833 0.372533,0 0.575733,0.105833 0.2032,0.1016 0.287867,0.351367 0.08467,0.245533 0.08467,0.698499 0,0.452966 -0.08467,0.698499 -0.08467,0.245534 -0.287867,0.351367 -0.2032,0.1016 -0.575733,0.1016 z m 0,-0.3175 q 0.232833,0 0.359833,-0.07197 0.127,-0.0762 0.1778,-0.253999 0.05503,-0.1778 0.05503,-0.508 0,-0.334433 -0.05503,-0.512233 -0.0508,-0.1778 -0.1778,-0.254 -0.127,-0.0762 -0.359833,-0.0762 -0.232833,0 -0.359833,0.0762 -0.122766,0.0762 -0.1778,0.254 -0.0508,0.1778 -0.0508,0.512233 0,0.3302 0.0508,0.508 0.05503,0.177799 0.1778,0.253999 0.127,0.07197 0.359833,0.07197 z"
         style="font-weight:normal;-inkscape-font-specification:'Berkeley Mono Variable'"
         id="path11454" />
      <path
         d="m 74.91109,58.474852 h 0.317499 v 5.079996 H 74.91109 Z"
         style="font-weight:normal;-inkscape-font-specification:'Berkeley Mono Variable'"
         id="path11456" />
      <path
         d="m 85.071055,58.474852 h 0.3175 v 5.079996 h -0.3175 z"
         style="font-weight:normal;-inkscape-font-specification:'Berkeley Mono Variable'"
         id="path11458" />
      <path
         d="m 97.771014,58.474852 h 0.3175 v 5.079996 h -0.3175 z"
         style="font-weight:normal;-inkscape-font-specification:'Berkeley Mono Variable'"
         id="path11460" />
      <path
         d="m 100.311,58.474852 h 0.3175 v 5.079996 h -0.3175 z"
         style="font-weight:normal;-inkscape-font-specification:'Berkeley Mono Variable'"
         id="path11462" />
      <path
         d="m 113.01096,58.474852 h 0.3175 v 5.079996 h -0.3175 z"
         style="font-weight:normal;-inkscape-font-specification:'Berkeley Mono Variable'"
         id="path11464" />
      <path
         d="m 115.55095,58.474852 h 0.3175 v 5.079996 h -0.3175 z"
         style="font-weight:normal;-inkscape-font-specification:'Berkeley Mono Variable'"
         id="path11466" />
      <path
         d="m 128.2509,58.474852 h 0.3175 v 5.079996 h -0.3175 z"
         style="font-weight:normal;-inkscape-font-specification:'Berkeley Mono Variable'"
         id="path11468" />
      <path
         d="m 31.731234,62.708182 h 0.3175 v 5.079996 h -0.3175 z"
         style="font-weight:normal;-inkscape-font-specification:'Berkeley Mono Variable'"
         id="path11470" />
      <path
         d="m 36.006884,63.876581 h 0.427567 l 1.168399,2.379131 h 0.02117 l -0.05503,-0.584199 v -1.794932 h 0.3556 v 2.878664 h -0.4318 l -1.164166,-2.379131 h -0.02117 l 0.05503,0.584199 v 1.794932 h -0.3556 z"
         style="font-weight:normal;-inkscape-font-specification:'Berkeley Mono Variable'"
         id="path11472" />
      <path
         d="m 44.431191,62.708182 h 0.3175 v 5.079996 h -0.3175 z"
         style="font-weight:normal;-inkscape-font-specification:'Berkeley Mono Variable'"
         id="path11474" />
      <path
         d="m 46.971182,62.708182 h 0.3175 v 5.079996 h -0.3175 z"
         style="font-weight:normal;-inkscape-font-specification:'Berkeley Mono Variable'"
         id="path11476" />
      <path
         d="m 51.323032,64.545447 h 0.3556 v 0.321733 h 0.02963 q 0.09313,-0.220133 0.232834,-0.296333 0.143933,-0.08043 0.431799,-0.08043 0.2794,0 0.4318,0.0762 0.1524,0.0762 0.2159,0.258233 0.06773,0.1778 0.06773,0.507999 v 1.422399 H 52.736965 V 65.32438 q 0,-0.198967 -0.04657,-0.309033 -0.04233,-0.110067 -0.143933,-0.1524 -0.09737,-0.04657 -0.283633,-0.04657 -0.2286,0 -0.3556,0.07197 -0.122767,0.07197 -0.1778,0.2413 -0.0508,0.165099 -0.0508,0.474133 v 1.151465 h -0.3556 z"
         style="font-weight:normal;-inkscape-font-specification:'Berkeley Mono Variable'"
         id="path11478" />
      <path
         d="m 59.671139,62.708182 h 0.3175 v 5.079996 h -0.3175 z"
         style="font-weight:normal;-inkscape-font-specification:'Berkeley Mono Variable'"
         id="path11480" />
      <path
         d="m 62.211131,62.708182 h 0.317499 v 5.079996 h -0.317499 z"
         style="font-weight:normal;-inkscape-font-specification:'Berkeley Mono Variable'"
         id="path11482" />
      <path
         d="m 66.562981,64.545447 h 0.355599 v 0.321733 h 0.02963 q 0.09313,-0.220133 0.232833,-0.296333 0.143933,-0.08043 0.4318,-0.08043 0.279399,0 0.431799,0.0762 0.1524,0.0762 0.2159,0.258233 0.06773,0.1778 0.06773,0.507999 v 1.422399 H 67.976913 V 65.32438 q 0,-0.198967 -0.04657,-0.309033 -0.04233,-0.110067 -0.143933,-0.1524 -0.09737,-0.04657 -0.283633,-0.04657 -0.2286,0 -0.3556,0.07197 -0.122766,0.07197 -0.1778,0.2413 -0.0508,0.165099 -0.0508,0.474133 v 1.151465 h -0.355599 z"
         style="font-weight:normal;-inkscape-font-specification:'Berkeley Mono Variable'"
         id="path11484" />
      <path
         d="m 74.91109,62.708182 h 0.317499 v 5.079996 H 74.91109 Z"
         style="font-weight:normal;-inkscape-font-specification:'Berkeley Mono Variable'"
         id="path11486" />
      <path
         d="m 85.071055,62.708182 h 0.3175 v 5.079996 h -0.3175 z"
         style="font-weight:normal;-inkscape-font-specification:'Berkeley Mono Variable'"
         id="path11488" />
      <path
         d="m 90.417734,66.797579 q -0.4064,0 -0.626533,-0.131234 -0.220133,-0.131233 -0.313266,-0.444499 -0.0889,-0.3175 -0.0889,-0.9017 0,-0.588432 0.0889,-0.901699 0.09313,-0.3175 0.309033,-0.448733 0.220133,-0.135466 0.626532,-0.135466 0.2921,0 0.465667,0.06773 0.1778,0.06773 0.270933,0.2286 0.09313,0.160866 0.118533,0.444499 H 90.9088 q -0.02963,-0.182033 -0.0889,-0.275166 -0.05503,-0.09313 -0.143933,-0.122767 -0.0889,-0.03387 -0.2413,-0.03387 -0.270933,0 -0.4191,0.1016 -0.143933,0.1016 -0.203199,0.351366 -0.05927,0.245533 -0.05927,0.715433 0,0.469899 0.05927,0.719666 0.05927,0.249766 0.198966,0.3556 0.143933,0.101599 0.410633,0.101599 0.249767,0 0.359833,-0.0889 0.110067,-0.0889 0.1524,-0.321734 h 0.359833 q -0.0254,0.275167 -0.122767,0.4318 -0.09737,0.156633 -0.279399,0.224367 -0.182034,0.0635 -0.474133,0.0635 z"
         style="font-weight:normal;-inkscape-font-specification:'Berkeley Mono Variable'"
         id="path11490" />
      <path
         d="m 92.843427,66.797579 q -0.372533,0 -0.575733,-0.1016 -0.198966,-0.105834 -0.283633,-0.351367 -0.08467,-0.245533 -0.08467,-0.698499 0,-0.4572 0.08467,-0.702733 0.08467,-0.245533 0.283633,-0.347133 0.2032,-0.105833 0.575733,-0.105833 0.372533,0 0.575733,0.105833 0.2032,0.1016 0.287866,0.351366 0.08467,0.245534 0.08467,0.6985 0,0.452966 -0.08467,0.698499 -0.08467,0.245533 -0.287866,0.351367 -0.2032,0.1016 -0.575733,0.1016 z m 0,-0.3175 q 0.232833,0 0.359833,-0.07197 0.127,-0.0762 0.1778,-0.254 0.05503,-0.177799 0.05503,-0.507999 0,-0.334433 -0.05503,-0.512233 -0.0508,-0.1778 -0.1778,-0.254 -0.127,-0.0762 -0.359833,-0.0762 -0.232833,0 -0.359833,0.0762 -0.122766,0.0762 -0.1778,0.254 -0.0508,0.1778 -0.0508,0.512233 0,0.3302 0.0508,0.507999 0.05503,0.1778 0.1778,0.254 0.127,0.07197 0.359833,0.07197 z"
         style="font-weight:normal;-inkscape-font-specification:'Berkeley Mono Variable'"
         id="path11492" />
      <path
         d="m 97.771014,62.708182 h 0.3175 v 5.079996 h -0.3175 z"
         style="font-weight:normal;-inkscape-font-specification:'Berkeley Mono Variable'"
         id="path11494" />
      <path
         d="m 100.311,62.708182 h 0.3175 v 5.079996 h -0.3175 z"
         style="font-weight:normal;-inkscape-font-specification:'Berkeley Mono Variable'"
         id="path11496" />
      <path
         d="m 104.66285,64.545447 h 0.3556 v 0.321733 h 0.0296 q 0.0931,-0.220133 0.23283,-0.296333 0.14393,-0.08043 0.4318,-0.08043 0.2794,0 0.4318,0.0762 0.1524,0.0762 0.2159,0.258233 0.0677,0.1778 0.0677,0.507999 v 1.422399 h -0.35136 V 65.32438 q 0,-0.198967 -0.0466,-0.309033 -0.0423,-0.110067 -0.14393,-0.1524 -0.0974,-0.04657 -0.28364,-0.04657 -0.2286,0 -0.3556,0.07197 -0.12276,0.07197 -0.1778,0.2413 -0.0508,0.165099 -0.0508,0.474133 v 1.151465 h -0.3556 z"
         style="font-weight:normal;-inkscape-font-specification:'Berkeley Mono Variable'"
         id="path11498" />
      <path
         d="m 108.15534,66.797579 q -0.37677,0 -0.5842,-0.1016 -0.2032,-0.105834 -0.2921,-0.347133 -0.0847,-0.245534 -0.0847,-0.6985 0,-0.457199 0.0847,-0.702733 0.0889,-0.249766 0.2921,-0.351366 0.2032,-0.105833 0.57573,-0.105833 0.31327,0 0.48683,0.0635 0.17357,0.0635 0.254,0.2159 0.0804,0.148166 0.0974,0.423333 h -0.35137 q -0.0423,-0.220134 -0.1397,-0.300567 -0.0974,-0.08043 -0.32173,-0.08043 -0.24553,0 -0.37676,0.0762 -0.13124,0.0762 -0.1905,0.258233 -0.055,0.1778 -0.055,0.512233 0,0.321733 0.055,0.495299 0.0593,0.173567 0.1905,0.249767 0.13546,0.07197 0.38099,0.07197 0.22014,0 0.31327,-0.06773 0.0974,-0.07197 0.14393,-0.2667 h 0.35137 q -0.0169,0.258234 -0.0974,0.397933 -0.0804,0.1397 -0.254,0.198967 -0.16933,0.05927 -0.47836,0.05927 z"
         style="font-weight:normal;-inkscape-font-specification:'Berkeley Mono Variable'"
         id="path11500" />
      <path
         d="m 113.01096,62.708182 h 0.3175 v 5.079996 h -0.3175 z"
         style="font-weight:normal;-inkscape-font-specification:'Berkeley Mono Variable'"
         id="path11502" />
      <path
         d="m 115.55095,62.708182 h 0.3175 v 5.079996 h -0.3175 z"
         style="font-weight:normal;-inkscape-font-specification:'Berkeley Mono Variable'"
         id="path11504" />
      <path
         d="m 117.46018,63.876581 h 1.59596 v 0.3302 h -1.23189 v 0.884766 h 1.07103 v 0.330199 h -1.07103 v 1.003299 h 1.31656 v 0.3302 h -1.68063 z"
         style="font-weight:normal;-inkscape-font-specification:'Berkeley Mono Variable'"
         id="path11506" />
      <path
         d="m 119.89856,63.876581 0.42334,-0.0127 q 0.53763,-0.01693 0.81703,0.05503 0.28363,0.06773 0.3937,0.2413 0.1143,0.169333 0.12277,0.4953 0.008,0.237066 -0.0381,0.385233 -0.0466,0.148166 -0.16087,0.228599 -0.1143,0.08043 -0.3175,0.105834 v 0.0254 q 0.19473,0.03387 0.28363,0.143933 0.0889,0.105833 0.16087,0.372533 l 0.22013,0.838199 h -0.40216 l -0.18627,-0.838199 q -0.0508,-0.232833 -0.1778,-0.3175 -0.127,-0.08467 -0.42333,-0.08467 h -0.35137 v 1.240365 h -0.36407 z m 0.98637,1.299632 q 0.23707,-0.0042 0.32597,-0.1143 0.0889,-0.110066 0.0889,-0.389466 0,-0.1778 -0.0381,-0.2667 -0.0339,-0.09313 -0.127,-0.135466 -0.0889,-0.04657 -0.27094,-0.06773 -0.15663,-0.01693 -0.2667,-0.01693 -0.11006,0 -0.33443,0.01693 v 0.9779 z"
         style="font-weight:normal;-inkscape-font-specification:'Berkeley Mono Variable'"
         id="path11508" />
      <path
         d="m 122.36659,63.876581 h 0.42757 l 1.1684,2.379131 h 0.0212 l -0.055,-0.584199 v -1.794932 h 0.3556 v 2.878664 h -0.4318 l -1.16417,-2.379131 h -0.0212 l 0.055,0.584199 v 1.794932 h -0.3556 z"
         style="font-weight:normal;-inkscape-font-specification:'Berkeley Mono Variable'"
         id="path11510" />
      <path
         d="m 128.2509,62.708182 h 0.3175 v 5.079996 h -0.3175 z"
         style="font-weight:normal;-inkscape-font-specification:'Berkeley Mono Variable'"
         id="path11512" />
      <path
         d="m 31.731234,66.941512 h 0.3175 v 5.079995 h -0.3175 z"
         style="font-weight:normal;-inkscape-font-specification:'Berkeley Mono Variable'"
         id="path11514" />
      <path
         d="m 37.077917,71.030908 q -0.4064,0 -0.626533,-0.131233 -0.220133,-0.131233 -0.313267,-0.4445 -0.0889,-0.317499 -0.0889,-0.901699 0,-0.588433 0.0889,-0.901699 0.09313,-0.3175 0.309034,-0.448733 0.220133,-0.135467 0.626532,-0.135467 0.2921,0 0.465667,0.06773 0.177799,0.06773 0.270933,0.2286 0.09313,0.160866 0.118533,0.444499 h -0.359833 q -0.02963,-0.182033 -0.0889,-0.275166 -0.05503,-0.09313 -0.143933,-0.122767 -0.0889,-0.03387 -0.2413,-0.03387 -0.270933,0 -0.4191,0.101599 -0.143933,0.1016 -0.203199,0.351367 -0.05927,0.245533 -0.05927,0.715433 0,0.469899 0.05927,0.719666 0.05927,0.249766 0.198966,0.355599 0.143933,0.1016 0.410633,0.1016 0.249766,0 0.359833,-0.0889 0.110067,-0.0889 0.1524,-0.321733 h 0.359833 q -0.0254,0.275167 -0.122767,0.4318 -0.09737,0.156633 -0.279399,0.224366 -0.182034,0.0635 -0.474133,0.0635 z"
         style="font-weight:normal;-inkscape-font-specification:'Berkeley Mono Variable'"
         id="path11516" />
      <path
         d="m 44.431191,66.941512 h 0.3175 v 5.079995 h -0.3175 z"
         style="font-weight:normal;-inkscape-font-specification:'Berkeley Mono Variable'"
         id="path11518" />
      <path
         d="m 46.971182,66.941512 h 0.3175 v 5.079995 h -0.3175 z"
         style="font-weight:normal;-inkscape-font-specification:'Berkeley Mono Variable'"
         id="path11520" />
      <path
         d="m 52.275532,71.030908 q -0.376767,0 -0.5842,-0.1016 -0.2032,-0.105833 -0.2921,-0.347133 -0.08467,-0.245533 -0.08467,-0.698499 0,-0.4572 0.08467,-0.702733 0.0889,-0.249766 0.2921,-0.351366 0.2032,-0.105833 0.575733,-0.105833 0.313266,0 0.486833,0.0635 0.173566,0.0635 0.254,0.2159 0.08043,0.148167 0.09737,0.423333 h -0.351366 q -0.04233,-0.220133 -0.1397,-0.300566 -0.09737,-0.08043 -0.321733,-0.08043 -0.245533,0 -0.376766,0.0762 -0.131234,0.0762 -0.1905,0.258233 -0.05503,0.1778 -0.05503,0.512233 0,0.321733 0.05503,0.495299 0.05927,0.173567 0.1905,0.249767 0.135466,0.07197 0.380999,0.07197 0.220133,0 0.313267,-0.06773 0.09737,-0.07197 0.143933,-0.2667 h 0.351366 q -0.01693,0.258233 -0.09737,0.397933 -0.08043,0.1397 -0.254,0.198967 -0.169333,0.05927 -0.478366,0.05927 z"
         style="font-weight:normal;-inkscape-font-specification:'Berkeley Mono Variable'"
         id="path11522" />
      <path
         d="m 59.671139,66.941512 h 0.3175 v 5.079995 h -0.3175 z"
         style="font-weight:normal;-inkscape-font-specification:'Berkeley Mono Variable'"
         id="path11524" />
      <path
         d="m 62.211131,66.941512 h 0.317499 v 5.079995 h -0.317499 z"
         style="font-weight:normal;-inkscape-font-specification:'Berkeley Mono Variable'"
         id="path11526" />
      <path
         d="m 67.51548,71.030908 q -0.376766,0 -0.5842,-0.1016 -0.203199,-0.105833 -0.292099,-0.347133 -0.08467,-0.245533 -0.08467,-0.698499 0,-0.4572 0.08467,-0.702733 0.0889,-0.249766 0.292099,-0.351366 0.2032,-0.105833 0.575733,-0.105833 0.313267,0 0.486833,0.0635 0.173567,0.0635 0.254,0.2159 0.08043,0.148167 0.09737,0.423333 h -0.351367 q -0.04233,-0.220133 -0.1397,-0.300566 -0.09737,-0.08043 -0.321733,-0.08043 -0.245533,0 -0.376766,0.0762 -0.131233,0.0762 -0.1905,0.258233 -0.05503,0.1778 -0.05503,0.512233 0,0.321733 0.05503,0.495299 0.05927,0.173567 0.1905,0.249767 0.135466,0.07197 0.381,0.07197 0.220133,0 0.313266,-0.06773 0.09737,-0.07197 0.143933,-0.2667 h 0.351367 q -0.01693,0.258233 -0.09737,0.397933 -0.08043,0.1397 -0.254,0.198967 -0.169333,0.05927 -0.478366,0.05927 z"
         style="font-weight:normal;-inkscape-font-specification:'Berkeley Mono Variable'"
         id="path11528" />
      <path
         d="m 74.91109,66.941512 h 0.317499 v 5.079995 H 74.91109 Z"
         style="font-weight:normal;-inkscape-font-specification:'Berkeley Mono Variable'"
         id="path11530" />
      <path
         d="m 85.071055,66.941512 h 0.3175 v 5.079995 h -0.3175 z"
         style="font-weight:normal;-inkscape-font-specification:'Berkeley Mono Variable'"
         id="path11532" />
      <path
         d="m 97.771014,66.941512 h 0.3175 v 5.079995 h -0.3175 z"
         style="font-weight:normal;-inkscape-font-specification:'Berkeley Mono Variable'"
         id="path11534" />
      <path
         d="m 100.311,66.941512 h 0.3175 v 5.079995 h -0.3175 z"
         style="font-weight:normal;-inkscape-font-specification:'Berkeley Mono Variable'"
         id="path11536" />
      <path
         d="m 113.01096,66.941512 h 0.3175 v 5.079995 h -0.3175 z"
         style="font-weight:normal;-inkscape-font-specification:'Berkeley Mono Variable'"
         id="path11538" />
      <path
         d="m 115.55095,66.941512 h 0.3175 v 5.079995 h -0.3175 z"
         style="font-weight:normal;-inkscape-font-specification:'Berkeley Mono Variable'"
         id="path11540" />
      <path
         d="m 128.2509,66.941512 h 0.3175 v 5.079995 h -0.3175 z"
         style="font-weight:normal;-inkscape-font-specification:'Berkeley Mono Variable'"
         id="path11542" />
      <path
         d="m 31.731234,71.174841 h 0.3175 v 5.079996 h -0.3175 z"
         style="font-weight:normal;-inkscape-font-specification:'Berkeley Mono Variable'"
         id="path11544" />
      <path
         d="m 36.180451,72.343241 h 1.595965 v 0.330199 h -1.231899 v 0.884766 h 1.071033 v 0.3302 h -1.071033 v 1.003299 h 1.316566 v 0.3302 h -1.680632 z"
         style="font-weight:normal;-inkscape-font-specification:'Berkeley Mono Variable'"
         id="path11546" />
      <path
         d="m 44.431191,71.174841 h 0.3175 v 5.079996 h -0.3175 z"
         style="font-weight:normal;-inkscape-font-specification:'Berkeley Mono Variable'"
         id="path11548" />
      <path
         d="m 46.971182,71.174841 h 0.3175 v 5.079996 h -0.3175 z"
         style="font-weight:normal;-inkscape-font-specification:'Berkeley Mono Variable'"
         id="path11550" />
      <path
         d="m 52.237432,75.264238 q -0.372533,0 -0.575733,-0.1016 -0.198967,-0.105833 -0.287867,-0.351366 -0.08467,-0.249767 -0.08467,-0.706966 0,-0.448733 0.08043,-0.690033 0.08467,-0.245533 0.2794,-0.347133 0.194733,-0.105833 0.554566,-0.105833 0.359833,0 0.554566,0.1143 0.194733,0.110066 0.275167,0.380999 0.08043,0.2667 0.07197,0.757766 h -1.460498 q 0.0127,0.2921 0.06773,0.448733 0.05927,0.156633 0.1778,0.224367 0.122766,0.0635 0.342899,0.0635 0.211667,0 0.3048,-0.0635 0.09737,-0.0635 0.156633,-0.237067 h 0.3683 q -0.04657,0.2413 -0.135467,0.372533 -0.0889,0.131233 -0.249766,0.186267 -0.160867,0.05503 -0.440266,0.05503 z m 0.529166,-1.358899 q -0.0085,-0.249766 -0.0635,-0.380999 -0.0508,-0.135467 -0.169333,-0.1905 -0.1143,-0.05927 -0.3302,-0.05927 -0.2032,0 -0.3175,0.05927 -0.110066,0.05503 -0.1651,0.1905 -0.05503,0.131233 -0.07197,0.380999 z"
         style="font-weight:normal;-inkscape-font-specification:'Berkeley Mono Variable'"
         id="path11552" />
      <path
         d="m 59.671139,71.174841 h 0.3175 v 5.079996 h -0.3175 z"
         style="font-weight:normal;-inkscape-font-specification:'Berkeley Mono Variable'"
         id="path11554" />
      <path
         d="m 62.211131,71.174841 h 0.317499 v 5.079996 h -0.317499 z"
         style="font-weight:normal;-inkscape-font-specification:'Berkeley Mono Variable'"
         id="path11556" />
      <path
         d="m 67.47738,75.264238 q -0.372533,0 -0.575733,-0.1016 -0.198966,-0.105833 -0.287866,-0.351366 -0.08467,-0.249767 -0.08467,-0.706966 0,-0.448733 0.08043,-0.690033 0.08467,-0.245533 0.2794,-0.347133 0.194733,-0.105833 0.554566,-0.105833 0.359833,0 0.554567,0.1143 0.194733,0.110066 0.275166,0.380999 0.08043,0.2667 0.07197,0.757766 h -1.460499 q 0.0127,0.2921 0.06773,0.448733 0.05927,0.156633 0.1778,0.224367 0.122766,0.0635 0.3429,0.0635 0.211666,0 0.304799,-0.0635 0.09737,-0.0635 0.156634,-0.237067 h 0.368299 q -0.04657,0.2413 -0.135466,0.372533 -0.0889,0.131233 -0.249767,0.186267 -0.160866,0.05503 -0.440266,0.05503 z m 0.529166,-1.358899 q -0.0085,-0.249766 -0.0635,-0.380999 -0.0508,-0.135467 -0.169333,-0.1905 -0.1143,-0.05927 -0.3302,-0.05927 -0.2032,0 -0.317499,0.05927 -0.110067,0.05503 -0.1651,0.1905 -0.05503,0.131233 -0.07197,0.380999 z"
         style="font-weight:normal;-inkscape-font-specification:'Berkeley Mono Variable'"
         id="path11558" />
      <path
         d="m 74.91109,71.174841 h 0.317499 v 5.079996 H 74.91109 Z"
         style="font-weight:normal;-inkscape-font-specification:'Berkeley Mono Variable'"
         id="path11560" />
      <path
         d="m 85.071055,71.174841 h 0.3175 v 5.079996 h -0.3175 z"
         style="font-weight:normal;-inkscape-font-specification:'Berkeley Mono Variable'"
         id="path11562" />
      <path
         d="m 90.3754,75.264238 q -0.376766,0 -0.584199,-0.1016 -0.2032,-0.105833 -0.2921,-0.347133 -0.08467,-0.245533 -0.08467,-0.698499 0,-0.4572 0.08467,-0.702733 0.0889,-0.249767 0.2921,-0.351366 0.2032,-0.105834 0.575733,-0.105834 0.313266,0 0.486833,0.0635 0.173566,0.0635 0.253999,0.2159 0.08043,0.148167 0.09737,0.423333 h -0.351366 q -0.04233,-0.220133 -0.1397,-0.300566 -0.09737,-0.08043 -0.321733,-0.08043 -0.245533,0 -0.376767,0.0762 -0.131233,0.0762 -0.190499,0.258233 -0.05503,0.1778 -0.05503,0.512233 0,0.321733 0.05503,0.4953 0.05927,0.173566 0.190499,0.249766 0.135467,0.07197 0.381,0.07197 0.220133,0 0.313266,-0.06773 0.09737,-0.07197 0.143934,-0.2667 h 0.351366 q -0.01693,0.258233 -0.09737,0.397933 -0.08043,0.1397 -0.253999,0.198966 -0.169333,0.05927 -0.478367,0.05927 z"
         style="font-weight:normal;-inkscape-font-specification:'Berkeley Mono Variable'"
         id="path11564" />
      <path
         d="m 92.843427,75.264238 q -0.372533,0 -0.575733,-0.1016 -0.198966,-0.105833 -0.283633,-0.351366 -0.08467,-0.245533 -0.08467,-0.6985 0,-0.457199 0.08467,-0.702732 0.08467,-0.245534 0.283633,-0.347133 0.2032,-0.105834 0.575733,-0.105834 0.372533,0 0.575733,0.105834 0.2032,0.101599 0.287866,0.351366 0.08467,0.245533 0.08467,0.698499 0,0.452967 -0.08467,0.6985 -0.08467,0.245533 -0.287866,0.351366 -0.2032,0.1016 -0.575733,0.1016 z m 0,-0.3175 q 0.232833,0 0.359833,-0.07197 0.127,-0.0762 0.1778,-0.254 0.05503,-0.1778 0.05503,-0.508 0,-0.334433 -0.05503,-0.512233 -0.0508,-0.177799 -0.1778,-0.253999 -0.127,-0.0762 -0.359833,-0.0762 -0.232833,0 -0.359833,0.0762 -0.122766,0.0762 -0.1778,0.253999 -0.0508,0.1778 -0.0508,0.512233 0,0.3302 0.0508,0.508 0.05503,0.1778 0.1778,0.254 0.127,0.07197 0.359833,0.07197 z"
         style="font-weight:normal;-inkscape-font-specification:'Berkeley Mono Variable'"
         id="path11566" />
      <path
         d="m 97.771014,71.174841 h 0.3175 v 5.079996 h -0.3175 z"
         style="font-weight:normal;-inkscape-font-specification:'Berkeley Mono Variable'"
         id="path11568" />
      <path
         d="m 100.311,71.174841 h 0.3175 v 5.079996 h -0.3175 z"
         style="font-weight:normal;-inkscape-font-specification:'Berkeley Mono Variable'"
         id="path11570" />
      <path
         d="m 104.58665,72.343241 h 0.42757 l 1.1684,2.379131 h 0.0212 l -0.055,-0.5842 v -1.794931 h 0.3556 v 2.878664 h -0.4318 l -1.16416,-2.379132 h -0.0212 l 0.055,0.5842 v 1.794932 h -0.3556 z"
         style="font-weight:normal;-inkscape-font-specification:'Berkeley Mono Variable'"
         id="path11572" />
      <path
         d="m 108.19767,75.264238 q -0.4064,0 -0.62653,-0.131233 -0.22013,-0.131233 -0.31327,-0.4445 -0.0889,-0.3175 -0.0889,-0.901699 0,-0.588433 0.0889,-0.901699 0.0931,-0.3175 0.30904,-0.448733 0.22013,-0.135467 0.62653,-0.135467 0.2921,0 0.46566,0.06773 0.1778,0.06773 0.27094,0.2286 0.0931,0.160867 0.11853,0.4445 h -0.35983 q -0.0296,-0.182033 -0.0889,-0.275167 -0.055,-0.09313 -0.14394,-0.122766 -0.0889,-0.03387 -0.2413,-0.03387 -0.27093,0 -0.41909,0.1016 -0.14394,0.1016 -0.2032,0.351367 -0.0593,0.245533 -0.0593,0.715432 0,0.4699 0.0593,0.719666 0.0593,0.249767 0.19896,0.3556 0.14394,0.1016 0.41063,0.1016 0.24977,0 0.35984,-0.0889 0.11006,-0.0889 0.1524,-0.321733 h 0.35983 q -0.0254,0.275166 -0.12277,0.4318 -0.0974,0.156633 -0.2794,0.224366 -0.18203,0.0635 -0.47413,0.0635 z"
         style="font-weight:normal;-inkscape-font-specification:'Berkeley Mono Variable'"
         id="path11574" />
      <path
         d="m 113.01096,71.174841 h 0.3175 v 5.079996 h -0.3175 z"
         style="font-weight:normal;-inkscape-font-specification:'Berkeley Mono Variable'"
         id="path11576" />
      <path
         d="m 115.55095,71.174841 h 0.3175 v 5.079996 h -0.3175 z"
         style="font-weight:normal;-inkscape-font-specification:'Berkeley Mono Variable'"
         id="path11578" />
      <path
         d="m 117.46018,72.343241 h 1.59596 v 0.330199 h -1.23189 v 0.884766 h 1.07103 v 0.3302 h -1.07103 v 1.003299 h 1.31656 v 0.3302 h -1.68063 z"
         style="font-weight:normal;-inkscape-font-specification:'Berkeley Mono Variable'"
         id="path11580" />
      <path
         d="m 119.89856,72.343241 0.42334,-0.0127 q 0.53763,-0.01693 0.81703,0.05503 0.28363,0.06773 0.3937,0.2413 0.1143,0.169333 0.12277,0.495299 0.008,0.237067 -0.0381,0.385233 -0.0466,0.148167 -0.16087,0.2286 -0.1143,0.08043 -0.3175,0.105833 v 0.0254 q 0.19473,0.03387 0.28363,0.143933 0.0889,0.105834 0.16087,0.372533 l 0.22013,0.8382 h -0.40216 l -0.18627,-0.8382 q -0.0508,-0.232833 -0.1778,-0.317499 -0.127,-0.08467 -0.42333,-0.08467 h -0.35137 v 1.240366 h -0.36407 z m 0.98637,1.299632 q 0.23707,-0.0042 0.32597,-0.1143 0.0889,-0.110067 0.0889,-0.389466 0,-0.1778 -0.0381,-0.2667 -0.0339,-0.09313 -0.127,-0.135467 -0.0889,-0.04657 -0.27094,-0.06773 -0.15663,-0.01693 -0.2667,-0.01693 -0.11006,0 -0.33443,0.01693 v 0.977899 z"
         style="font-weight:normal;-inkscape-font-specification:'Berkeley Mono Variable'"
         id="path11582" />
      <path
         d="m 122.36659,72.343241 h 0.42757 l 1.1684,2.379131 h 0.0212 l -0.055,-0.5842 v -1.794931 h 0.3556 v 2.878664 h -0.4318 l -1.16417,-2.379132 h -0.0212 l 0.055,0.5842 v 1.794932 h -0.3556 z"
         style="font-weight:normal;-inkscape-font-specification:'Berkeley Mono Variable'"
         id="path11584" />
      <path
         d="m 128.2509,71.174841 h 0.3175 v 5.079996 h -0.3175 z"
         style="font-weight:normal;-inkscape-font-specification:'Berkeley Mono Variable'"
         id="path11586" />
      <path
         d="m 31.731234,75.408171 h 0.3175 v 5.079996 h -0.3175 z"
         style="font-weight:normal;-inkscape-font-specification:'Berkeley Mono Variable'"
         id="path11588" />
      <path
         d="m 36.078851,76.57657 0.423333,-0.0127 q 0.537633,-0.01693 0.817032,0.05503 0.283634,0.06773 0.3937,0.241299 0.1143,0.169334 0.122767,0.4953 0.0085,0.237066 -0.0381,0.385233 -0.04657,0.148167 -0.160867,0.2286 -0.1143,0.08043 -0.3175,0.105833 v 0.0254 q 0.194734,0.03387 0.283634,0.143933 0.0889,0.105833 0.160866,0.372533 l 0.220133,0.8382 h -0.402166 l -0.186267,-0.8382 q -0.0508,-0.232833 -0.177799,-0.3175 -0.127,-0.08467 -0.423333,-0.08467 h -0.351367 v 1.240366 h -0.364066 z m 0.986366,1.299633 q 0.237066,-0.0042 0.325966,-0.1143 0.0889,-0.110067 0.0889,-0.389467 0,-0.1778 -0.0381,-0.266699 -0.03387,-0.09313 -0.127,-0.135467 -0.0889,-0.04657 -0.270933,-0.06773 -0.156633,-0.01693 -0.2667,-0.01693 -0.110066,0 -0.334433,0.01693 v 0.977899 z"
         style="font-weight:normal;-inkscape-font-specification:'Berkeley Mono Variable'"
         id="path11590" />
      <path
         d="m 44.431191,75.408171 h 0.3175 v 5.079996 h -0.3175 z"
         style="font-weight:normal;-inkscape-font-specification:'Berkeley Mono Variable'"
         id="path11592" />
      <path
         d="m 46.971182,75.408171 h 0.3175 v 5.079996 h -0.3175 z"
         style="font-weight:normal;-inkscape-font-specification:'Berkeley Mono Variable'"
         id="path11594" />
      <path
         d="m 51.560099,77.245436 h 0.338666 l -0.0127,0.5207 h 0.03387 q 0.118533,-0.270933 0.186266,-0.376766 0.07197,-0.105834 0.1524,-0.127 0.08043,-0.0254 0.275167,-0.02963 v 0 q 0.410633,-0.0042 0.546099,0.0042 v 0.334433 q -0.1905,-0.0085 -0.376766,-0.0042 -0.182033,0 -0.258233,0.0127 -0.122767,0.02117 -0.249767,0.135467 -0.126999,0.110067 -0.211666,0.2794 -0.08043,0.1651 -0.08043,0.342899 v 1.1176 h -0.3429 z"
         style="font-weight:normal;-inkscape-font-specification:'Berkeley Mono Variable'"
         id="path11596" />
      <path
         d="m 59.671139,75.408171 h 0.3175 v 5.079996 h -0.3175 z"
         style="font-weight:normal;-inkscape-font-specification:'Berkeley Mono Variable'"
         id="path11598" />
      <path
         d="m 62.211131,75.408171 h 0.317499 v 5.079996 h -0.317499 z"
         style="font-weight:normal;-inkscape-font-specification:'Berkeley Mono Variable'"
         id="path11600" />
      <path
         d="m 66.800047,77.245436 h 0.338667 l -0.0127,0.5207 h 0.03387 q 0.118533,-0.270933 0.186267,-0.376766 0.07197,-0.105834 0.1524,-0.127 0.08043,-0.0254 0.275166,-0.02963 v 0 q 0.410633,-0.0042 0.5461,0.0042 v 0.334433 q -0.1905,-0.0085 -0.376767,-0.0042 -0.182033,0 -0.258233,0.0127 -0.122766,0.02117 -0.249766,0.135467 -0.127,0.110067 -0.211667,0.2794 -0.08043,0.1651 -0.08043,0.342899 v 1.1176 h -0.3429 z"
         style="font-weight:normal;-inkscape-font-specification:'Berkeley Mono Variable'"
         id="path11602" />
      <path
         d="m 74.91109,75.408171 h 0.317499 v 5.079996 H 74.91109 Z"
         style="font-weight:normal;-inkscape-font-specification:'Berkeley Mono Variable'"
         id="path11604" />
      <path
         d="m 85.071055,75.408171 h 0.3175 v 5.079996 h -0.3175 z"
         style="font-weight:normal;-inkscape-font-specification:'Berkeley Mono Variable'"
         id="path11606" />
      <path
         d="m 97.771014,75.408171 h 0.3175 v 5.079996 h -0.3175 z"
         style="font-weight:normal;-inkscape-font-specification:'Berkeley Mono Variable'"
         id="path11608" />
      <path
         d="m 100.311,75.408171 h 0.3175 v 5.079996 h -0.3175 z"
         style="font-weight:normal;-inkscape-font-specification:'Berkeley Mono Variable'"
         id="path11610" />
      <path
         d="m 113.01096,75.408171 h 0.3175 v 5.079996 h -0.3175 z"
         style="font-weight:normal;-inkscape-font-specification:'Berkeley Mono Variable'"
         id="path11612" />
      <path
         d="m 115.55095,75.408171 h 0.3175 v 5.079996 h -0.3175 z"
         style="font-weight:normal;-inkscape-font-specification:'Berkeley Mono Variable'"
         id="path11614" />
      <path
         d="m 128.2509,75.408171 h 0.3175 v 5.079996 h -0.3175 z"
         style="font-weight:normal;-inkscape-font-specification:'Berkeley Mono Variable'"
         id="path11616" />
      <path
         d="m 31.731234,79.641501 h 0.3175 v 5.079996 h -0.3175 z"
         style="font-weight:normal;-inkscape-font-specification:'Berkeley Mono Variable'"
         id="path11618" />
      <path
         d="m 36.006884,80.8099 h 0.427567 l 1.168399,2.379131 h 0.02117 l -0.05503,-0.584199 V 80.8099 h 0.3556 v 2.878664 h -0.4318 l -1.164166,-2.379131 h -0.02117 l 0.05503,0.584199 v 1.794932 h -0.3556 z"
         style="font-weight:normal;-inkscape-font-specification:'Berkeley Mono Variable'"
         id="path11620" />
      <path
         d="m 44.431191,79.641501 h 0.3175 v 5.079996 h -0.3175 z"
         style="font-weight:normal;-inkscape-font-specification:'Berkeley Mono Variable'"
         id="path11622" />
      <path
         d="m 46.971182,79.641501 h 0.3175 v 5.079996 h -0.3175 z"
         style="font-weight:normal;-inkscape-font-specification:'Berkeley Mono Variable'"
         id="path11624" />
      <path
         d="m 51.323032,81.478766 h 0.3556 v 0.321733 h 0.02963 q 0.09313,-0.220133 0.232834,-0.296333 0.143933,-0.08043 0.431799,-0.08043 0.2794,0 0.4318,0.0762 0.1524,0.0762 0.2159,0.258233 0.06773,0.1778 0.06773,0.507999 v 1.422399 h -0.351366 v -1.430865 q 0,-0.198967 -0.04657,-0.309033 -0.04233,-0.110067 -0.143933,-0.1524 -0.09737,-0.04657 -0.283633,-0.04657 -0.2286,0 -0.3556,0.07197 -0.122767,0.07197 -0.1778,0.2413 -0.0508,0.1651 -0.0508,0.474133 v 1.151465 h -0.3556 z"
         style="font-weight:normal;-inkscape-font-specification:'Berkeley Mono Variable'"
         id="path11626" />
      <path
         d="m 59.671139,79.641501 h 0.3175 v 5.079996 h -0.3175 z"
         style="font-weight:normal;-inkscape-font-specification:'Berkeley Mono Variable'"
         id="path11628" />
      <path
         d="m 62.211131,79.641501 h 0.317499 v 5.079996 h -0.317499 z"
         style="font-weight:normal;-inkscape-font-specification:'Berkeley Mono Variable'"
         id="path11630" />
      <path
         d="m 66.562981,81.478766 h 0.355599 v 0.321733 h 0.02963 q 0.09313,-0.220133 0.232833,-0.296333 0.143933,-0.08043 0.4318,-0.08043 0.279399,0 0.431799,0.0762 0.1524,0.0762 0.2159,0.258233 0.06773,0.1778 0.06773,0.507999 v 1.422399 h -0.351366 v -1.430865 q 0,-0.198967 -0.04657,-0.309033 -0.04233,-0.110067 -0.143933,-0.1524 -0.09737,-0.04657 -0.283633,-0.04657 -0.2286,0 -0.3556,0.07197 -0.122766,0.07197 -0.1778,0.2413 -0.0508,0.1651 -0.0508,0.474133 v 1.151465 h -0.355599 z"
         style="font-weight:normal;-inkscape-font-specification:'Berkeley Mono Variable'"
         id="path11632" />
      <path
         d="m 74.91109,79.641501 h 0.317499 v 5.079996 H 74.91109 Z"
         style="font-weight:normal;-inkscape-font-specification:'Berkeley Mono Variable'"
         id="path11634" />
      <path
         d="m 85.071055,79.641501 h 0.3175 v 5.079996 h -0.3175 z"
         style="font-weight:normal;-inkscape-font-specification:'Berkeley Mono Variable'"
         id="path11636" />
      <path
         d="m 90.417734,83.730898 q -0.4064,0 -0.626533,-0.131234 -0.220133,-0.131233 -0.313266,-0.444499 -0.0889,-0.3175 -0.0889,-0.901699 0,-0.588433 0.0889,-0.9017 0.09313,-0.317499 0.309033,-0.448733 0.220133,-0.135466 0.626532,-0.135466 0.2921,0 0.465667,0.06773 0.1778,0.06773 0.270933,0.2286 0.09313,0.160866 0.118533,0.444499 H 90.9088 q -0.02963,-0.182033 -0.0889,-0.275166 -0.05503,-0.09313 -0.143933,-0.122767 -0.0889,-0.03387 -0.2413,-0.03387 -0.270933,0 -0.4191,0.1016 -0.143933,0.1016 -0.203199,0.351366 -0.05927,0.245533 -0.05927,0.715433 0,0.469899 0.05927,0.719666 0.05927,0.249766 0.198966,0.3556 0.143933,0.1016 0.410633,0.1016 0.249767,0 0.359833,-0.0889 0.110067,-0.0889 0.1524,-0.321733 h 0.359833 q -0.0254,0.275166 -0.122767,0.431799 -0.09737,0.156633 -0.279399,0.224367 -0.182034,0.0635 -0.474133,0.0635 z"
         style="font-weight:normal;-inkscape-font-specification:'Berkeley Mono Variable'"
         id="path11638" />
      <path
         d="m 92.84766,83.730898 q -0.389466,0 -0.605366,-0.131234 -0.2159,-0.135466 -0.309033,-0.448733 -0.0889,-0.317499 -0.0889,-0.893232 0,-0.5842 0.0889,-0.901699 0.09313,-0.321733 0.3048,-0.452967 0.2159,-0.135466 0.609599,-0.135466 0.389467,0 0.601133,0.135466 0.2159,0.135467 0.3048,0.452967 0.09313,0.317499 0.09313,0.901699 0,0.575733 -0.09313,0.893232 -0.0889,0.313267 -0.3048,0.448733 -0.211666,0.131234 -0.601133,0.131234 z m 0,-0.325967 q 0.249767,0 0.385233,-0.1016 0.135467,-0.105833 0.1905,-0.347133 0.05927,-0.245533 0.05927,-0.698499 0,-0.4572 -0.05927,-0.706966 -0.05503,-0.249767 -0.1905,-0.351367 -0.135466,-0.105833 -0.385233,-0.105833 -0.253999,0 -0.389466,0.105833 -0.135466,0.1016 -0.194733,0.351367 -0.05503,0.249766 -0.05503,0.706966 0,0.452966 0.05503,0.698499 0.05927,0.2413 0.194733,0.347133 0.135467,0.1016 0.389466,0.1016 z"
         style="font-weight:normal;-inkscape-font-specification:'Berkeley Mono Variable'"
         id="path11640" />
      <path
         d="m 97.771014,79.641501 h 0.3175 v 5.079996 h -0.3175 z"
         style="font-weight:normal;-inkscape-font-specification:'Berkeley Mono Variable'"
         id="path11642" />
      <path
         d="m 100.311,79.641501 h 0.3175 v 5.079996 h -0.3175 z"
         style="font-weight:normal;-inkscape-font-specification:'Berkeley Mono Variable'"
         id="path11644" />
      <path
         d="m 104.58665,80.8099 h 0.42757 l 1.1684,2.379131 h 0.0212 l -0.055,-0.584199 V 80.8099 h 0.3556 v 2.878664 h -0.4318 l -1.16416,-2.379131 h -0.0212 l 0.055,0.584199 v 1.794932 h -0.3556 z"
         style="font-weight:normal;-inkscape-font-specification:'Berkeley Mono Variable'"
         id="path11646" />
      <path
         d="m 108.19767,83.730898 q -0.4064,0 -0.62653,-0.131234 -0.22013,-0.131233 -0.31327,-0.444499 -0.0889,-0.3175 -0.0889,-0.901699 0,-0.588433 0.0889,-0.9017 0.0931,-0.317499 0.30904,-0.448733 0.22013,-0.135466 0.62653,-0.135466 0.2921,0 0.46566,0.06773 0.1778,0.06773 0.27094,0.2286 0.0931,0.160866 0.11853,0.444499 h -0.35983 q -0.0296,-0.182033 -0.0889,-0.275166 -0.055,-0.09313 -0.14394,-0.122767 -0.0889,-0.03387 -0.2413,-0.03387 -0.27093,0 -0.41909,0.1016 -0.14394,0.1016 -0.2032,0.351366 -0.0593,0.245533 -0.0593,0.715433 0,0.469899 0.0593,0.719666 0.0593,0.249766 0.19896,0.3556 0.14394,0.1016 0.41063,0.1016 0.24977,0 0.35984,-0.0889 0.11006,-0.0889 0.1524,-0.321733 h 0.35983 q -0.0254,0.275166 -0.12277,0.431799 -0.0974,0.156633 -0.2794,0.224367 -0.18203,0.0635 -0.47413,0.0635 z"
         style="font-weight:normal;-inkscape-font-specification:'Berkeley Mono Variable'"
         id="path11648" />
      <path
         d="m 113.01096,79.641501 h 0.3175 v 5.079996 h -0.3175 z"
         style="font-weight:normal;-inkscape-font-specification:'Berkeley Mono Variable'"
         id="path11650" />
      <path
         d="m 115.55095,79.641501 h 0.3175 v 5.079996 h -0.3175 z"
         style="font-weight:normal;-inkscape-font-specification:'Berkeley Mono Variable'"
         id="path11652" />
      <path
         d="m 118.27721,83.730898 q -0.37253,0 -0.57573,-0.1016 -0.19897,-0.105834 -0.28787,-0.351367 -0.0847,-0.249766 -0.0847,-0.706966 0,-0.448733 0.0804,-0.690033 0.0847,-0.245533 0.2794,-0.347133 0.19473,-0.105833 0.55456,-0.105833 0.35984,0 0.55457,0.1143 0.19473,0.110067 0.27517,0.381 0.0804,0.2667 0.072,0.757766 h -1.46049 q 0.0127,0.2921 0.0677,0.448733 0.0593,0.156633 0.1778,0.224366 0.12276,0.0635 0.3429,0.0635 0.21166,0 0.3048,-0.0635 0.0974,-0.0635 0.15663,-0.237066 h 0.3683 q -0.0466,0.2413 -0.13547,0.372533 -0.0889,0.131233 -0.24976,0.186266 -0.16087,0.05503 -0.44027,0.05503 z m 0.52917,-1.358899 q -0.008,-0.249767 -0.0635,-0.381 -0.0508,-0.135466 -0.16934,-0.1905 -0.1143,-0.05927 -0.3302,-0.05927 -0.2032,0 -0.3175,0.05927 -0.11006,0.05503 -0.16509,0.1905 -0.055,0.131233 -0.072,0.381 z"
         style="font-weight:normal;-inkscape-font-specification:'Berkeley Mono Variable'"
         id="path11654" />
      <path
         d="m 120.13986,81.478766 h 0.33867 l -0.0127,0.5207 h 0.0339 q 0.11853,-0.270933 0.18626,-0.376767 0.072,-0.105833 0.1524,-0.127 0.0804,-0.0254 0.27517,-0.02963 v 0 q 0.41063,-0.0042 0.5461,0.0042 v 0.334434 q -0.1905,-0.0085 -0.37677,-0.0042 -0.18203,0 -0.25823,0.0127 -0.12277,0.02117 -0.24977,0.135467 -0.127,0.110066 -0.21166,0.2794 -0.0804,0.165099 -0.0804,0.342899 v 1.117599 h -0.3429 z"
         style="font-weight:normal;-inkscape-font-specification:'Berkeley Mono Variable'"
         id="path11656" />
      <path
         d="m 122.44279,81.478766 h 0.3556 v 0.321733 h 0.0296 q 0.0931,-0.220133 0.23284,-0.296333 0.14393,-0.08043 0.4318,-0.08043 0.2794,0 0.4318,0.0762 0.1524,0.0762 0.2159,0.258233 0.0677,0.1778 0.0677,0.507999 v 1.422399 h -0.35137 v -1.430865 q 0,-0.198967 -0.0466,-0.309033 -0.0423,-0.110067 -0.14394,-0.1524 -0.0974,-0.04657 -0.28363,-0.04657 -0.2286,0 -0.3556,0.07197 -0.12277,0.07197 -0.1778,0.2413 -0.0508,0.1651 -0.0508,0.474133 v 1.151465 h -0.3556 z"
         style="font-weight:normal;-inkscape-font-specification:'Berkeley Mono Variable'"
         id="path11658" />
      <path
         d="m 128.2509,79.641501 h 0.3175 v 5.079996 h -0.3175 z"
         style="font-weight:normal;-inkscape-font-specification:'Berkeley Mono Variable'"
         id="path11660" />
      <path
         d="m 31.731234,83.874831 h 0.3175 v 5.079996 h -0.3175 z"
         style="font-weight:normal;-inkscape-font-specification:'Berkeley Mono Variable'"
         id="path11662" />
      <path
         d="m 44.431191,83.874831 h 0.3175 v 5.079996 h -0.3175 z"
         style="font-weight:normal;-inkscape-font-specification:'Berkeley Mono Variable'"
         id="path11664" />
      <path
         d="m 46.971182,83.874831 h 0.3175 v 5.079996 h -0.3175 z"
         style="font-weight:normal;-inkscape-font-specification:'Berkeley Mono Variable'"
         id="path11666" />
      <path
         d="m 59.671139,83.874831 h 0.3175 v 5.079996 h -0.3175 z"
         style="font-weight:normal;-inkscape-font-specification:'Berkeley Mono Variable'"
         id="path11668" />
      <path
         d="m 62.211131,83.874831 h 0.317499 v 5.079996 h -0.317499 z"
         style="font-weight:normal;-inkscape-font-specification:'Berkeley Mono Variable'"
         id="path11670" />
      <path
         d="m 74.91109,83.874831 h 0.317499 v 5.079996 H 74.91109 Z"
         style="font-weight:normal;-inkscape-font-specification:'Berkeley Mono Variable'"
         id="path11672" />
      <path
         d="m 85.071055,83.874831 h 0.3175 v 5.079996 h -0.3175 z"
         style="font-weight:normal;-inkscape-font-specification:'Berkeley Mono Variable'"
         id="path11674" />
      <path
         d="m 97.771014,83.874831 h 0.3175 v 5.079996 h -0.3175 z"
         style="font-weight:normal;-inkscape-font-specification:'Berkeley Mono Variable'"
         id="path11676" />
      <path
         d="m 100.311,83.874831 h 0.3175 v 5.079996 h -0.3175 z"
         style="font-weight:normal;-inkscape-font-specification:'Berkeley Mono Variable'"
         id="path11678" />
      <path
         d="m 113.01096,83.874831 h 0.3175 v 5.079996 h -0.3175 z"
         style="font-weight:normal;-inkscape-font-specification:'Berkeley Mono Variable'"
         id="path11680" />
      <path
         d="m 115.55095,83.874831 h 0.3175 v 5.079996 h -0.3175 z"
         style="font-weight:normal;-inkscape-font-specification:'Berkeley Mono Variable'"
         id="path11682" />
      <path
         d="m 128.2509,83.874831 h 0.3175 v 5.079996 h -0.3175 z"
         style="font-weight:normal;-inkscape-font-specification:'Berkeley Mono Variable'"
         id="path11684" />
      <path
         d="m 31.731234,88.108161 h 0.3175 v 2.700864 h -0.3175 z m 0,2.383364 h 1.426632 v 0.3175 h -1.426632 z"
         style="font-weight:normal;-inkscape-font-specification:'Berkeley Mono Variable'"
         id="path11686" />
      <path
         d="m 33.15786,90.491525 h 2.539998 v 0.3175 H 33.15786 Z"
         style="font-weight:normal;-inkscape-font-specification:'Berkeley Mono Variable'"
         id="path11688" />
      <path
         d="m 35.697851,90.491525 h 2.539998 v 0.3175 h -2.539998 z"
         style="font-weight:normal;-inkscape-font-specification:'Berkeley Mono Variable'"
         id="path11690" />
      <path
         d="m 38.237843,90.491525 h 2.539997 v 0.3175 h -2.539997 z"
         style="font-weight:normal;-inkscape-font-specification:'Berkeley Mono Variable'"
         id="path11692" />
      <path
         d="m 40.777834,90.491525 h 2.539998 v 0.3175 h -2.539998 z"
         style="font-weight:normal;-inkscape-font-specification:'Berkeley Mono Variable'"
         id="path11694" />
      <path
         d="m 44.431191,88.108161 h 0.3175 v 2.700864 h -0.3175 z m -1.113366,2.383364 h 1.430866 v 0.3175 h -1.430866 z"
         style="font-weight:normal;-inkscape-font-specification:'Berkeley Mono Variable'"
         id="path11696" />
      <path
         d="m 46.971182,88.108161 h 0.3175 v 2.700864 h -0.3175 z m 0,2.383364 h 1.426633 v 0.3175 h -1.426633 z"
         style="font-weight:normal;-inkscape-font-specification:'Berkeley Mono Variable'"
         id="path11698" />
      <path
         d="m 48.397808,90.491525 h 2.539998 v 0.3175 h -2.539998 z"
         style="font-weight:normal;-inkscape-font-specification:'Berkeley Mono Variable'"
         id="path11700" />
      <path
         d="m 50.937799,90.491525 h 2.539998 v 0.3175 h -2.539998 z"
         style="font-weight:normal;-inkscape-font-specification:'Berkeley Mono Variable'"
         id="path11702" />
      <path
         d="m 53.477791,90.491525 h 2.539998 v 0.3175 h -2.539998 z"
         style="font-weight:normal;-inkscape-font-specification:'Berkeley Mono Variable'"
         id="path11704" />
      <path
         d="m 56.017782,90.491525 h 2.539998 v 0.3175 h -2.539998 z"
         style="font-weight:normal;-inkscape-font-specification:'Berkeley Mono Variable'"
         id="path11706" />
      <path
         d="m 59.671139,88.108161 h 0.3175 v 2.700864 h -0.3175 z m -1.113365,2.383364 h 1.430865 v 0.3175 h -1.430865 z"
         style="font-weight:normal;-inkscape-font-specification:'Berkeley Mono Variable'"
         id="path11708" />
      <path
         d="m 62.211131,88.108161 h 0.317499 v 2.700864 h -0.317499 z m 0,2.383364 h 1.426632 v 0.3175 h -1.426632 z"
         style="font-weight:normal;-inkscape-font-specification:'Berkeley Mono Variable'"
         id="path11710" />
      <path
         d="m 63.637758,90.491525 h 2.539998 v 0.3175 h -2.539998 z"
         style="font-weight:normal;-inkscape-font-specification:'Berkeley Mono Variable'"
         id="path11712" />
      <path
         d="m 66.177748,90.491525 h 2.539998 v 0.3175 h -2.539998 z"
         style="font-weight:normal;-inkscape-font-specification:'Berkeley Mono Variable'"
         id="path11714" />
      <path
         d="m 68.717737,90.491525 h 2.539998 v 0.3175 h -2.539998 z"
         style="font-weight:normal;-inkscape-font-specification:'Berkeley Mono Variable'"
         id="path11716" />
      <path
         d="m 71.25773,90.491525 h 2.539998 v 0.3175 H 71.25773 Z"
         style="font-weight:normal;-inkscape-font-specification:'Berkeley Mono Variable'"
         id="path11718" />
      <path
         d="m 74.91109,88.108161 h 0.317499 v 2.700864 H 74.91109 Z m -1.113366,2.383364 h 1.430865 v 0.3175 h -1.430865 z"
         style="font-weight:normal;-inkscape-font-specification:'Berkeley Mono Variable'"
         id="path11720" />
      <path
         d="m 85.071055,88.108161 h 0.3175 v 2.700864 h -0.3175 z m 0,2.383364 h 1.426632 v 0.3175 h -1.426632 z"
         style="font-weight:normal;-inkscape-font-specification:'Berkeley Mono Variable'"
         id="path11722" />
      <path
         d="m 86.497679,90.491525 h 2.539998 v 0.3175 h -2.539998 z"
         style="font-weight:normal;-inkscape-font-specification:'Berkeley Mono Variable'"
         id="path11724" />
      <path
         d="m 89.037668,90.491525 h 2.539998 v 0.3175 h -2.539998 z"
         style="font-weight:normal;-inkscape-font-specification:'Berkeley Mono Variable'"
         id="path11726" />
      <path
         d="m 91.577662,90.491525 h 2.539997 v 0.3175 h -2.539997 z"
         style="font-weight:normal;-inkscape-font-specification:'Berkeley Mono Variable'"
         id="path11728" />
      <path
         d="m 94.117655,90.491525 h 2.539998 v 0.3175 h -2.539998 z"
         style="font-weight:normal;-inkscape-font-specification:'Berkeley Mono Variable'"
         id="path11730" />
      <path
         d="m 97.771014,88.108161 h 0.3175 v 2.700864 h -0.3175 z m -1.113366,2.383364 h 1.430866 v 0.3175 h -1.430866 z"
         style="font-weight:normal;-inkscape-font-specification:'Berkeley Mono Variable'"
         id="path11732" />
      <path
         d="m 100.311,88.108161 h 0.3175 v 2.700864 h -0.3175 z m 0,2.383364 h 1.42663 v 0.3175 H 100.311 Z"
         style="font-weight:normal;-inkscape-font-specification:'Berkeley Mono Variable'"
         id="path11734" />
      <path
         d="m 101.73763,90.491525 h 2.53999 v 0.3175 h -2.53999 z"
         style="font-weight:normal;-inkscape-font-specification:'Berkeley Mono Variable'"
         id="path11736" />
      <path
         d="m 104.27762,90.491525 h 2.54 v 0.3175 h -2.54 z"
         style="font-weight:normal;-inkscape-font-specification:'Berkeley Mono Variable'"
         id="path11738" />
      <path
         d="m 106.81761,90.491525 h 2.53999 v 0.3175 h -2.53999 z"
         style="font-weight:normal;-inkscape-font-specification:'Berkeley Mono Variable'"
         id="path11740" />
      <path
         d="m 109.3576,90.491525 h 2.54 v 0.3175 h -2.54 z"
         style="font-weight:normal;-inkscape-font-specification:'Berkeley Mono Variable'"
         id="path11742" />
      <path
         d="m 113.01096,88.108161 h 0.3175 v 2.700864 h -0.3175 z m -1.11337,2.383364 h 1.43087 v 0.3175 h -1.43087 z"
         style="font-weight:normal;-inkscape-font-specification:'Berkeley Mono Variable'"
         id="path11744" />
      <path
         d="m 115.55095,88.108161 h 0.3175 v 2.700864 h -0.3175 z m 0,2.383364 h 1.42663 v 0.3175 h -1.42663 z"
         style="font-weight:normal;-inkscape-font-specification:'Berkeley Mono Variable'"
         id="path11746" />
      <path
         d="m 116.97758,90.491525 h 2.54 v 0.3175 h -2.54 z"
         style="font-weight:normal;-inkscape-font-specification:'Berkeley Mono Variable'"
         id="path11748" />
      <path
         d="m 119.51756,90.491525 h 2.54 v 0.3175 h -2.54 z"
         style="font-weight:normal;-inkscape-font-specification:'Berkeley Mono Variable'"
         id="path11750" />
      <path
         d="m 122.05756,90.491525 h 2.54 v 0.3175 h -2.54 z"
         style="font-weight:normal;-inkscape-font-specification:'Berkeley Mono Variable'"
         id="path11752" />
      <path
         d="m 124.59755,90.491525 h 2.54 v 0.3175 h -2.54 z"
         style="font-weight:normal;-inkscape-font-specification:'Berkeley Mono Variable'"
         id="path11754" />
      <path
         d="m 128.2509,88.108161 h 0.3175 v 2.700864 h -0.3175 z m -1.11336,2.383364 h 1.43086 v 0.3175 h -1.43086 z"
         style="font-weight:normal;-inkscape-font-specification:'Berkeley Mono Variable'"
         id="path11756" />
    </g>
  </g>
</svg>
